<?xml version="1.0" encoding="utf-8"?>
<!-- Generator: Adobe Illustrator 16.0.0, SVG Export Plug-In . SVG Version: 6.00 Build 0)  -->
<!DOCTYPE svg PUBLIC "-//W3C//DTD SVG 1.1//EN" "http://www.w3.org/Graphics/SVG/1.1/DTD/svg11.dtd">
<svg version="1.1" id="Ebene_1" xmlns="http://www.w3.org/2000/svg" xmlns:xlink="http://www.w3.org/1999/xlink" x="0px" y="0px"
	 width="59px" height="68px" viewBox="-0.049 0 59 68" enable-background="new -0.049 0 59 68" xml:space="preserve">
<desc>Created with Lunacy</desc>
<g id="heart">
	<path id="Fill-1" fill="#3A9274" d="M57.038,17.409C52.396,7.42,42.658,0.777,31.667,0.1L30.574,0l-0.998,0.025
		c-3.392,0.125-6.715,0.984-9.741,2.521C11.789,6.57,6.718,14.809,6.748,23.807v4.219L0.113,39.088
		c-0.21,0.35-0.216,0.785-0.016,1.142c0.202,0.354,0.579,0.574,0.987,0.574h7.09L7.487,51.019c-0.524,3.021,1.466,5.906,4.477,6.489
		c0.074,0.015,0.15,0.022,0.226,0.022c0.04,0,0.082-0.002,0.121-0.007l6.896-0.748v10.091c0,0.627,0.507,1.134,1.133,1.134h27.184
		c0.626,0,1.133-0.507,1.133-1.134v-11.26l8.851-21.879C59.453,28.429,59.284,22.586,57.038,17.409z M55.392,32.921l-8.917,22.047
		c-0.063,0.162-0.085,0.336-0.069,0.507c0,0.024-0.014,0.045-0.014,0.068v10.19H21.473V55.535c0-0.023-0.013-0.045-0.014-0.067
		c-0.001-0.024,0.01-0.05,0.006-0.076c-0.013-0.064-0.034-0.128-0.06-0.188c-0.012-0.05-0.028-0.099-0.047-0.146
		c-0.045-0.098-0.104-0.187-0.177-0.267c-0.011-0.021-0.024-0.041-0.038-0.061c-0.013-0.01-0.026-0.02-0.039-0.03
		c-0.235-0.23-0.56-0.345-0.887-0.313l-7.971,0.863c-1.758-0.444-2.862-2.186-2.512-3.967l0.782-11.534
		c0.044-0.625-0.427-1.167-1.051-1.211H3.089l5.765-9.618c0.011-0.023,0.019-0.047,0.026-0.072c0.033-0.069,0.058-0.141,0.076-0.214
		c0.022-0.074,0.038-0.15,0.045-0.227c0-0.026,0.015-0.049,0.015-0.076v-4.524C8.986,15.663,13.57,8.205,20.85,4.558
		c2.733-1.389,5.735-2.166,8.797-2.28h0.906c10.518,0.297,19.969,6.506,24.419,16.044C56.978,22.955,57.128,28.181,55.392,32.921z"
		/>
	<path id="Fill-3" fill="#3A9274" d="M31.669,11.496c-4.218-3.547-10.51-3.167-14.26,0.859c-3.751,4.028-3.624,10.268,0.288,14.142
		L30.66,39.335c0.266,0.261,0.64,0.378,1.009,0.315c0.064,0.011,0.13,0.017,0.196,0.017c0.303,0,0.595-0.12,0.811-0.332
		l12.964-12.838c3.91-3.874,4.04-10.114,0.288-14.142C42.178,8.329,35.885,7.949,31.669,11.496z M44.02,24.893L31.667,37.122
		L19.316,24.893c-3.133-3.102-3.133-8.13,0-11.232c3.133-3.101,8.213-3.101,11.345,0l0.198,0.195c0.447,0.443,1.173,0.443,1.62,0
		l0.197-0.195c3.132-3.101,8.211-3.101,11.344,0C47.153,16.763,47.153,21.791,44.02,24.893L44.02,24.893z"/>
	<path id="Fill-4" fill="#3A9274" d="M24.872,12.466c-2.749,0-5.227,1.731-6.279,4.388c-1.052,2.656-0.47,5.714,1.473,7.746
		c0.444,0.449,1.151,0.443,1.588-0.014c0.437-0.458,0.443-1.196,0.014-1.661c-1.296-1.355-1.683-3.393-0.982-5.165
		c0.702-1.771,2.354-2.925,4.187-2.924c0.625,0,1.133-0.531,1.133-1.186C26.005,12.997,25.498,12.466,24.872,12.466z"/>
</g>
</svg>
