<?xml version="1.0" encoding="utf-8"?>
<!-- Generator: Adobe Illustrator 16.0.0, SVG Export Plug-In . SVG Version: 6.00 Build 0)  -->
<!DOCTYPE svg PUBLIC "-//W3C//DTD SVG 1.1//EN" "http://www.w3.org/Graphics/SVG/1.1/DTD/svg11.dtd">
<svg version="1.1" id="Ebene_1" xmlns="http://www.w3.org/2000/svg" xmlns:xlink="http://www.w3.org/1999/xlink" x="0px" y="0px"
	 width="82px" height="78px" viewBox="0 0 82 78" enable-background="new 0 0 82 78" xml:space="preserve">
<desc>Created with Lunacy</desc>
<g id="_x38_99235">
	<g id="Group_1_" transform="translate(76.6619 46.48496)">
		<g id="Group">
			<path id="Shape" fill="#3A9274" stroke="#FFFFFF" stroke-width="0.6" d="M4.494-1.751C4.203-2.04,3.801-2.208,3.391-2.208
				c-0.408,0-0.813,0.168-1.102,0.457C2-1.46,1.834-1.059,1.834-0.649S2,0.163,2.291,0.453C2.58,0.744,2.983,0.91,3.393,0.91
				c0.408,0,0.811-0.166,1.102-0.457c0.289-0.289,0.457-0.689,0.457-1.102S4.783-1.46,4.494-1.751L4.494-1.751z"/>
		</g>
	</g>
	<g id="Group_3_" transform="translate(10.64754 56.19823)">
		<g id="Group_2_">
			<path id="Shape_1_" fill="#3A9274" stroke="#FFFFFF" stroke-width="0.6" d="M8.17-2.208H3.392c-0.86,0-1.558,0.699-1.558,1.559
				c0,0.861,0.698,1.561,1.558,1.561H8.17c0.86,0,1.558-0.697,1.558-1.561C9.728-1.509,9.031-2.208,8.17-2.208L8.17-2.208z"/>
		</g>
	</g>
	<g id="Group_5_" transform="translate(10.64754 32.41009)">
		<g id="Group_4_">
			<path id="Shape_2_" fill="#3A9274" stroke="#FFFFFF" stroke-width="0.6" d="M8.17-2.206H3.392c-0.86,0-1.558,0.697-1.558,1.558
				c0,0.861,0.698,1.558,1.558,1.558H8.17c0.86,0,1.558-0.698,1.558-1.558C9.728-1.508,9.031-2.206,8.17-2.206L8.17-2.206z"/>
		</g>
	</g>
	<g id="Group_7_" transform="translate(30.85221 39.78527)">
		<g id="Group_6_">
			<path id="Shape_3_" fill="#3A9274" stroke="#FFFFFF" stroke-width="0.6" d="M13.271-1.75c-0.607-0.609-1.594-0.609-2.203,0
				L2.289,7.027c-0.608,0.609-0.608,1.596,0,2.203c0.304,0.305,0.703,0.457,1.102,0.457c0.398,0,0.797-0.152,1.102-0.457
				l8.777-8.777C13.88-0.154,13.88-1.143,13.271-1.75L13.271-1.75z"/>
		</g>
	</g>
	<g id="Group_9_" transform="translate(44.99234 45.9536)">
		<g id="Group_8_">
			<path id="Shape_4_" fill="#3A9274" stroke="#FFFFFF" stroke-width="0.6" d="M4.494-1.75C4.203-2.04,3.803-2.208,3.392-2.208
				c-0.412,0-0.814,0.168-1.104,0.457S1.834-1.059,1.834-0.649c0,0.412,0.166,0.814,0.457,1.104C2.58,0.744,2.982,0.912,3.392,0.912
				c0.412,0,0.813-0.168,1.102-0.459s0.457-0.689,0.457-1.102S4.783-1.461,4.494-1.75L4.494-1.75z"/>
		</g>
	</g>
	<g id="Group_11_" transform="translate(38.33187 66.21293)">
		<g id="Group_10_">
			<path id="Shape_5_" fill="#3A9274" stroke="#FFFFFF" stroke-width="0.6" d="M4.494-1.75C4.203-2.041,3.801-2.207,3.391-2.207
				c-0.409,0-0.812,0.166-1.1,0.457c-0.29,0.289-0.457,0.691-0.457,1.102c0,0.412,0.167,0.813,0.457,1.104S2.983,0.91,3.393,0.91
				c0.41,0,0.811-0.168,1.102-0.457c0.289-0.289,0.457-0.689,0.457-1.102C4.951-1.059,4.783-1.461,4.494-1.75L4.494-1.75z"/>
		</g>
	</g>
	<g id="Group_13_" transform="translate(57.49596 44.17432)">
		<g id="Group_12_">
			<path id="Shape_6_" fill="#3A9274" stroke="#FFFFFF" stroke-width="0.6" d="M3.393-2.208c-0.861,0-1.559,0.697-1.559,1.559v6
				c0,0.859,0.697,1.559,1.559,1.559c0.859,0,1.559-0.697,1.559-1.559v-6C4.949-1.51,4.252-2.208,3.393-2.208L3.393-2.208z"/>
		</g>
	</g>
	<g id="Group_15_" transform="translate(0 4.207078)">
		<g id="Group_14_">
			<path id="Shape_7_" fill="#3A9274" stroke="#FFFFFF" stroke-width="0.6" d="M73.627-2.207c-4.668,0-8.465,3.797-8.465,8.465
				c0,0.866,0.701,1.567,1.568,1.567c0.865,0,1.563-0.702,1.563-1.567c0-2.939,2.394-5.33,5.33-5.33s5.33,2.391,5.33,5.33v12.54
				H34.692c2.065-2.009,3.351-4.814,3.351-7.916c0-0.866-0.702-1.567-1.567-1.567h-24.61c-0.866,0-1.567,0.702-1.567,1.567
				c0,3.102,1.286,5.907,3.351,7.916H3.4c-0.865,0-1.567,0.702-1.567,1.568v47.653c0,0.865,0.702,1.564,1.567,1.564h77.124
				c0.865,0,1.565-0.699,1.565-1.564V47.955c0-0.867-0.7-1.566-1.565-1.566s-1.566,0.699-1.566,1.566v18.496H56.385V21.934h22.572
				v13.953c0,0.863,0.701,1.564,1.566,1.564s1.565-0.701,1.565-1.564V20.366V6.258C82.092,1.591,78.293-2.207,73.627-2.207
				L73.627-2.207z M13.588,12.45h21.164c-0.729,3.617-3.932,6.349-7.76,6.349H21.35C17.521,18.798,14.318,16.066,13.588,12.45
				L13.588,12.45z M27.542,66.451H4.968V45.76H27.54L27.542,66.451L27.542,66.451z M27.542,42.625H4.968V21.934h22.023h0.549
				L27.542,42.625L27.542,42.625z M53.248,66.451H30.676v-9.719h22.572V66.451L53.248,66.451z M53.248,53.598H38.641l7.173-7.174
				c0.609-0.611,0.609-1.604,0-2.217c-0.612-0.613-1.604-0.611-2.217,0l-9.392,9.391h-3.531V31.025h22.572L53.248,53.598
				L53.248,53.598z M53.248,27.89H30.676v-5.957h22.572V27.89L53.248,27.89z"/>
		</g>
	</g>
	<g id="Group_17_" transform="translate(67.21915 15.6595)">
		<g id="Group_16_">
			<path id="Shape_8_" fill="#3A9274" stroke="#FFFFFF" stroke-width="0.6" d="M5.13-0.781l-0.4-0.668
				c-0.443-0.738-1.4-0.978-2.139-0.536C1.853-1.542,1.613-0.586,2.056,0.153l0.4,0.668c0.291,0.487,0.809,0.757,1.338,0.757
				c0.27,0,0.549-0.072,0.799-0.222C5.332,0.914,5.572-0.043,5.13-0.781L5.13-0.781z"/>
		</g>
	</g>
	<g id="Group_19_" transform="translate(70.02171 20.33751)">
		<g id="Group_18_">
			<path id="Shape_9_" fill="#3A9274" stroke="#FFFFFF" stroke-width="0.6" d="M5.131-0.781L4.731-1.449
				c-0.443-0.738-1.4-0.978-2.14-0.536C1.853-1.543,1.613-0.586,2.056,0.153l0.397,0.668c0.291,0.487,0.812,0.757,1.341,0.757
				c0.27,0,0.549-0.072,0.799-0.222C5.332,0.914,5.572-0.043,5.131-0.781L5.131-0.781z"/>
		</g>
	</g>
	<g id="Group_21_" transform="translate(63.21179 21.11334)">
		<g id="Group_20_">
			<path id="Shape_10_" fill="#3A9274" stroke="#FFFFFF" stroke-width="0.6" d="M3.392-2.207c-0.859,0-1.559,0.698-1.559,1.559
				v0.779c0,0.86,0.699,1.558,1.559,1.558c0.861,0,1.559-0.698,1.559-1.558v-0.779C4.95-1.509,4.253-2.207,3.392-2.207L3.392-2.207z
				"/>
		</g>
	</g>
	<g id="Group_23_" transform="translate(63.21179 15.65973)">
		<g id="Group_22_">
			<path id="Shape_11_" fill="#3A9274" stroke="#FFFFFF" stroke-width="0.6" d="M3.392-2.207c-0.859,0-1.559,0.698-1.559,1.559
				v0.779c0,0.86,0.697,1.558,1.559,1.558c0.862,0,1.559-0.698,1.559-1.558v-0.779C4.95-1.509,4.253-2.207,3.392-2.207L3.392-2.207z
				"/>
		</g>
	</g>
	<g id="Group_25_" transform="translate(56.0015 20.33751)">
		<g id="Group_24_">
			<path id="Shape_12_" fill="#3A9274" stroke="#FFFFFF" stroke-width="0.6" d="M4.594-1.985C3.856-2.427,2.899-2.187,2.457-1.449
				L2.055-0.781C1.614-0.043,1.854,0.914,2.592,1.357c0.25,0.15,0.525,0.222,0.799,0.222c0.529,0,1.045-0.27,1.338-0.757l0.4-0.668
				C5.573-0.586,5.332-1.543,4.594-1.985L4.594-1.985z"/>
		</g>
	</g>
	<g id="Group_27_" transform="translate(58.80591 15.6595)">
		<g id="Group_26_">
			<path id="Shape_13_" fill="#3A9274" stroke="#FFFFFF" stroke-width="0.6" d="M4.594-1.985C3.856-2.427,2.899-2.187,2.456-1.449
				l-0.4,0.668C1.614-0.043,1.852,0.914,2.593,1.357c0.25,0.15,0.525,0.222,0.799,0.222c0.529,0,1.048-0.271,1.341-0.758L5.13,0.153
				C5.571-0.585,5.333-1.542,4.594-1.985L4.594-1.985z"/>
		</g>
	</g>
	<g id="Group_29_" transform="translate(32.04409 29.99336)">
		<g id="Group_28_">
			<path id="Shape_14_" fill="#3A9274" stroke="#FFFFFF" stroke-width="0.6" d="M4.493-1.75c-0.29-0.291-0.69-0.457-1.102-0.457
				c-0.41,0-0.812,0.166-1.101,0.457C2-1.46,1.833-1.058,1.833-0.649c0,0.41,0.167,0.812,0.457,1.102S2.981,0.91,3.391,0.91
				c0.412,0,0.812-0.167,1.102-0.457C4.784,0.163,4.95-0.238,4.95-0.649S4.785-1.46,4.493-1.75L4.493-1.75z"/>
		</g>
	</g>
	<g id="Group_31_" transform="translate(44.61781 29.99336)">
		<g id="Group_30_">
			<path id="Shape_15_" fill="#3A9274" stroke="#FFFFFF" stroke-width="0.6" d="M4.494-1.752C4.204-2.041,3.802-2.207,3.39-2.207
				c-0.41,0-0.811,0.166-1.102,0.455C1.999-1.46,1.833-1.06,1.833-0.649c0,0.41,0.166,0.812,0.455,1.102
				C2.579,0.743,2.98,0.91,3.39,0.91c0.412,0,0.814-0.167,1.104-0.457c0.291-0.291,0.457-0.691,0.457-1.102
				C4.951-1.058,4.785-1.46,4.494-1.752L4.494-1.752z"/>
		</g>
	</g>
	<g id="Group_33_" transform="translate(38.33187 29.99336)">
		<g id="Group_32_">
			<path id="Shape_16_" fill="#3A9274" stroke="#FFFFFF" stroke-width="0.6" d="M4.494-1.75C4.203-2.041,3.801-2.207,3.391-2.207
				c-0.409,0-0.812,0.166-1.1,0.457c-0.29,0.29-0.457,0.69-0.457,1.101c0,0.41,0.167,0.812,0.457,1.102S2.983,0.91,3.393,0.91
				c0.41,0,0.811-0.167,1.102-0.457s0.457-0.691,0.457-1.102C4.949-1.06,4.783-1.46,4.494-1.75L4.494-1.75z"/>
		</g>
	</g>
	<g id="Group_34_">
	</g>
	<g id="Group_35_">
	</g>
	<g id="Group_36_">
	</g>
	<g id="Group_37_">
	</g>
	<g id="Group_38_">
	</g>
	<g id="Group_39_">
	</g>
	<g id="Group_40_">
	</g>
	<g id="Group_41_">
	</g>
	<g id="Group_42_">
	</g>
	<g id="Group_43_">
	</g>
	<g id="Group_44_">
	</g>
	<g id="Group_45_">
	</g>
	<g id="Group_46_">
	</g>
	<g id="Group_47_">
	</g>
	<g id="Group_48_">
	</g>
</g>
</svg>
