<?xml version="1.0" encoding="utf-8"?>
<!-- Generator: Adobe Illustrator 16.0.0, SVG Export Plug-In . SVG Version: 6.00 Build 0)  -->
<!DOCTYPE svg PUBLIC "-//W3C//DTD SVG 1.1//EN" "http://www.w3.org/Graphics/SVG/1.1/DTD/svg11.dtd">
<svg version="1.1" id="Ebene_1" xmlns="http://www.w3.org/2000/svg" xmlns:xlink="http://www.w3.org/1999/xlink" x="0px" y="0px"
	 width="61px" height="78px" viewBox="-0.5 -1 61 78" enable-background="new -0.5 -1 61 78" xml:space="preserve">
<desc>Created with Lunacy</desc>
<g id="Icon-bath">
	<g id="Group_1_" transform="translate(26.32168 18.97913)">
		<g id="Group">
			<path id="Shape" fill="#3A9274" stroke="#FFFFFF" stroke-width="0.5" d="M18.845,16.746L2.534,0.434
				c-0.58-0.579-1.52-0.579-2.1,0c-0.58,0.58-0.58,1.52,0,2.1l16.312,16.311c0.289,0.29,0.669,0.435,1.049,0.435
				s0.76-0.145,1.05-0.435C19.424,18.266,19.424,17.326,18.845,16.746L18.845,16.746z"/>
		</g>
	</g>
	<g id="Group_3_" transform="translate(16.51182 18.91674)">
		<g id="Group_2_">
			<path id="Shape_1_" fill="#3A9274" stroke="#FFFFFF" stroke-width="0.5" d="M7.1,5.001L2.534,0.435
				c-0.58-0.58-1.519-0.58-2.099,0s-0.58,1.52,0,2.099L5,7.1c0.29,0.29,0.669,0.435,1.05,0.435C6.43,7.534,6.809,7.389,7.1,7.1
				C7.68,6.52,7.68,5.58,7.1,5.001L7.1,5.001z"/>
		</g>
	</g>
	<g id="Group_5_" transform="translate(24.77978 27.18563)">
		<g id="Group_4_">
			<path id="Shape_2_" fill="#3A9274" stroke="#FFFFFF" stroke-width="0.2" d="M2.541,0.441L2.528,0.429
				c-0.583-0.576-1.522-0.571-2.1,0.012C-0.147,1.024-0.142,1.963,0.441,2.54l0.013,0.013C0.743,2.838,1.12,2.981,1.497,2.981
				c0.383,0,0.766-0.147,1.056-0.441C3.129,1.957,3.124,1.018,2.541,0.441L2.541,0.441z"/>
		</g>
	</g>
	<g id="Group_7_" transform="translate(28.49814 30.90283)">
		<g id="Group_6_">
			<path id="Shape_3_" fill="#3A9274" stroke="#FFFFFF" stroke-width="0.5" d="M8.328,6.229L2.533,0.435
				c-0.58-0.58-1.519-0.58-2.099,0c-0.58,0.58-0.58,1.52,0,2.099L6.229,8.33c0.29,0.289,0.669,0.434,1.05,0.434
				c0.379,0,0.76-0.145,1.049-0.434C8.908,7.75,8.908,6.81,8.328,6.229L8.328,6.229z"/>
		</g>
	</g>
	<g id="Group_8_">
		<path id="Shape_4_" fill="#3A9274" stroke="#FFFFFF" stroke-width="0.5" d="M58.484,55.219H42.778
			c9.646-4.742,16.3-14.67,16.3-26.125C59.078,13.051,46.027,0,29.984,0C13.942,0,0.891,13.051,0.891,29.094
			c0,11.455,6.655,21.383,16.3,26.125H1.484C0.665,55.219,0,55.883,0,56.703C0,67.344,8.656,76,19.297,76h21.375
			c10.641,0,19.297-8.656,19.297-19.297C59.969,55.883,59.305,55.219,58.484,55.219L58.484,55.219z M3.859,29.094
			c0-14.405,11.72-26.125,26.125-26.125s26.125,11.72,26.125,26.125c0,13.907-10.924,25.31-24.641,26.082V43.492
			c0-3.355-2.73-6.086-6.086-6.086s-6.086,2.73-6.086,6.086c0,0.82,0.665,1.484,1.484,1.484s1.484-0.664,1.484-1.484
			c0-1.719,1.398-3.117,3.117-3.117s3.117,1.398,3.117,3.117v11.684C14.783,54.403,3.859,43.001,3.859,29.094L3.859,29.094z
			 M40.674,73.031H19.299c-8.503,0-15.509-6.533-16.261-14.844h53.898C56.184,66.498,49.177,73.031,40.674,73.031L40.674,73.031z"/>
	</g>
	<g id="Group_10_" transform="translate(6.972851 6.057409)">
		<g id="Group_9_">
			<path id="Shape_5_" fill="#3A9274" stroke="#FFFFFF" stroke-width="0.5" d="M23.013,0C10.324,0,0,10.324,0,23.013
				c0,5.05,1.605,9.843,4.642,13.863c2.938,3.887,7.112,6.793,11.755,8.185c0.785,0.235,1.612-0.21,1.848-0.995
				c0.235-0.786-0.21-1.613-0.996-1.849C8.841,39.697,2.969,31.8,2.969,23.013c0-11.053,8.992-20.044,20.044-20.044
				c11.053,0,20.044,8.992,20.044,20.044c0,8.787-5.872,16.683-14.28,19.204c-0.785,0.235-1.231,1.063-0.996,1.849
				c0.192,0.643,0.782,1.059,1.421,1.059c0.142,0,0.284-0.021,0.427-0.063c4.644-1.392,8.818-4.298,11.756-8.185
				c3.037-4.02,4.642-8.813,4.642-13.863C46.026,10.324,35.703,0,23.013,0L23.013,0z"/>
		</g>
	</g>
</g>
</svg>
