<?xml version="1.0" encoding="utf-8"?>
<!-- Generator: Adobe Illustrator 16.0.0, SVG Export Plug-In . SVG Version: 6.00 Build 0)  -->
<!DOCTYPE svg PUBLIC "-//W3C//DTD SVG 1.1//EN" "http://www.w3.org/Graphics/SVG/1.1/DTD/svg11.dtd">
<svg version="1.1" id="Ebene_1" xmlns="http://www.w3.org/2000/svg" xmlns:xlink="http://www.w3.org/1999/xlink" x="0px" y="0px"
	 width="78px" height="78px" viewBox="0 0 78 78" enable-background="new 0 0 78 78" xml:space="preserve">
<desc>Created with Lunacy</desc>
<g>
	<path fill-rule="evenodd" clip-rule="evenodd" fill="#3A9274" d="M62.212,34.134c-3.144,4.258-9.06,4.249-12.245-0.061
		c-1.524,2.044-3.508,3.249-6.097,3.234c-2.559-0.014-4.538-1.167-6.074-3.298c-1.56,2.093-3.537,3.307-6.124,3.298
		c-2.558-0.008-4.538-1.162-6.092-3.289c-1.546,2.062-3.514,3.292-6.096,3.289c-2.592-0.002-4.592-1.17-6.108-3.271
		c-0.401,0.448-0.729,0.874-1.117,1.233c-2.188,2.032-4.745,2.609-7.522,1.57c-2.809-1.05-4.401-3.176-4.672-6.187
		c-0.105-1.176-0.061-2.369-0.028-3.553c0.01-0.379,0.153-0.771,0.308-1.127c1.503-3.5,3.039-6.985,4.514-10.497
		c0.274-0.653,0.423-1.403,0.438-2.113c0.052-2.425,0.021-4.854,0.018-7.28c0-3.19,2.036-5.239,5.243-5.24
		c18.15-0.004,36.299-0.004,54.448,0c3.202,0.001,5.235,2.028,5.255,5.238c0.016,2.539-0.018,5.081,0.01,7.62
		c0.004,0.491,0.109,1.014,0.303,1.464c1.554,3.661,3.539,7.195,4.626,10.988c1.603,5.595-0.865,11.391-7.603,11.109
		c-1.957-0.082-3.534-1.07-4.808-2.537c-0.168-0.191-0.33-0.385-0.498-0.575C62.28,34.132,62.239,34.139,62.212,34.134z
		 M7.545,13.61c0.449,0,0.756,0,1.064,0c9.876,0.002,19.752,0.005,29.629,0.006c9.622,0.001,19.245-0.008,28.866,0.017
		c0.764,0.002,0.957-0.23,0.939-0.961c-0.045-2.172-0.012-4.346-0.018-6.518c-0.004-2.083-1.031-3.093-3.141-3.093
		c-6.403-0.001-12.812,0-19.218,0c-11.681,0-23.362-0.001-35.046,0c-2.046,0-3.062,1.018-3.074,3.071c-0.006,0.903,0,1.807,0,2.709
		C7.545,10.388,7.545,11.934,7.545,13.61z M48.684,25.766c-0.043-0.359-0.067-0.632-0.108-0.905
		c-0.398-2.764-0.821-5.525-1.189-8.293c-0.077-0.576-0.279-0.749-0.842-0.742c-2.287,0.025-4.575,0.031-6.859-0.006
		c-0.655-0.011-0.8,0.227-0.793,0.836c0.029,2.765,0.042,5.53,0.002,8.294c-0.01,0.735,0.252,0.887,0.926,0.878
		c2.653-0.034,5.306-0.012,7.958-0.015C48.049,25.814,48.321,25.786,48.684,25.766z M26.878,25.812c3.215,0,6.257-0.001,9.299,0
		c0.578,0,0.494-0.424,0.494-0.779c0.004-2.822-0.009-5.644,0.013-8.465c0.005-0.539-0.143-0.75-0.709-0.744
		c-2.343,0.024-4.685,0.026-7.025-0.002c-0.565-0.006-0.705,0.239-0.772,0.737c-0.295,2.209-0.627,4.413-0.939,6.619
		C27.12,24.009,27.01,24.843,26.878,25.812z M14.885,25.654c0.143,0.083,0.166,0.109,0.191,0.109
		c3.016,0.016,6.033,0.043,9.049,0.016c0.192-0.001,0.508-0.387,0.551-0.633c0.244-1.36,0.425-2.731,0.622-4.098
		c0.243-1.695,0.479-3.392,0.718-5.078c-0.165-0.061-0.243-0.115-0.32-0.116c-2.511-0.009-5.02-0.026-7.531,0.005
		c-0.202,0.002-0.509,0.304-0.585,0.529c-0.34,1.014-0.616,2.051-0.912,3.081C16.074,21.524,15.484,23.579,14.885,25.654z
		 M49.604,15.834c0,0.246-0.015,0.383,0.004,0.515c0.423,2.958,0.86,5.916,1.265,8.877c0.075,0.543,0.38,0.591,0.819,0.589
		c2.794-0.009,5.587,0,8.378-0.003c0.182-0.001,0.362-0.057,0.53-0.084c0.014-0.115,0.039-0.175,0.025-0.224
		c-0.875-3.063-1.739-6.129-2.656-9.178c-0.067-0.224-0.528-0.462-0.808-0.47c-1.635-0.044-3.271-0.021-4.908-0.021
		C51.388,15.834,50.521,15.834,49.604,15.834z M2.843,25.81c3.203,0,6.214,0.013,9.224-0.027c0.211-0.003,0.534-0.362,0.61-0.614
		c0.734-2.426,1.432-4.864,2.134-7.299c0.182-0.637,0.35-1.278,0.529-1.925c-0.167-0.05-0.247-0.095-0.324-0.096
		c-2.452-0.006-4.902-0.026-7.354,0.017c-0.26,0.004-0.629,0.327-0.754,0.593c-0.67,1.427-1.281,2.882-1.906,4.329
		C4.302,22.409,3.608,24.032,2.843,25.81z M72.646,25.808c-0.054-0.232-0.065-0.343-0.108-0.44
		c-1.295-3.006-2.583-6.016-3.917-9.005c-0.107-0.248-0.53-0.501-0.812-0.505c-2.342-0.04-4.685-0.023-7.026-0.013
		c-0.18,0-0.356,0.078-0.563,0.126c0.902,3.132,1.775,6.198,2.684,9.253c0.067,0.231,0.38,0.557,0.58,0.559
		C66.5,25.819,69.515,25.808,72.646,25.808z M7.29,28.036c-0.846,0-1.693,0-2.539,0c-2.772,0-2.925,0.189-2.408,2.991
		c0.436,2.371,2.612,4.136,5.021,4.069c2.485-0.069,4.547-1.932,4.814-4.388c0.07-0.643,0.017-1.298,0.063-1.944
		c0.04-0.548-0.154-0.751-0.718-0.739C10.113,28.056,8.7,28.036,7.29,28.036z M24.406,28.037c-0.376,0-0.652,0-0.93,0
		c-2.171-0.001-4.346-0.001-6.517-0.001c-2.803,0-2.896,0.088-2.398,2.919c0.363,2.062,1.626,3.405,3.613,3.953
		c2.002,0.551,3.738-0.048,5.111-1.608C24.604,31.801,24.515,29.989,24.406,28.037z M36.583,28.155
		c-0.071-0.03-0.148-0.089-0.225-0.089c-3.047-0.014-6.095-0.03-9.142-0.005c-0.18,0.002-0.496,0.345-0.507,0.542
		c-0.044,0.729-0.042,1.471,0.048,2.195c0.407,3.233,3.878,5.188,6.869,3.892C36.026,33.651,37.118,31.24,36.583,28.155z
		 M48.832,28.164c-0.106-0.042-0.186-0.098-0.261-0.099c-3.05-0.013-6.094-0.029-9.141-0.003c-0.177,0.001-0.487,0.344-0.501,0.544
		c-0.053,0.672-0.047,1.358,0.025,2.028c0.227,2.048,1.354,3.452,3.263,4.149c1.888,0.688,3.624,0.291,5.103-1.064
		C48.99,32.192,49.015,30.203,48.832,28.164z M63.336,28.088c0,0.637,0,1.221,0,1.806c0.008,2.26,1.003,3.93,3.095,4.802
		c1.879,0.784,3.666,0.462,5.212-0.88c1.791-1.555,1.811-3.606,1.595-5.727C69.92,28.088,66.685,28.088,63.336,28.088z
		 M60.994,28.095c-3.246,0-6.501,0-9.849,0c0,0.816-0.047,1.6,0.008,2.377c0.252,3.734,4.41,5.842,7.593,3.867
		C60.682,33.135,61.499,30.9,60.994,28.095z"/>
	<path fill-rule="evenodd" clip-rule="evenodd" fill="#3A9274" d="M5.53,69.551c0-3.418,0-6.689,0-9.961
		c0-5.872,0.001-11.743,0.003-17.613c0-0.143-0.008-0.284,0.002-0.424c0.05-0.768,0.476-1.24,1.132-1.203
		c0.763,0.044,1.08,0.521,1.103,1.24c0.011,0.337,0.003,0.677,0.003,1.016c0,8.608,0,17.218,0,25.826c0,0.332,0,0.666,0,1.059
		c1.53,0,2.978,0,4.521,0c0-0.375,0-0.706,0-1.035c0-8.582-0.002-17.162,0.001-25.742c0-2.134,0.978-3.125,3.089-3.127
		c4.939-0.006,9.88-0.004,14.819,0c2.159,0,3.131,0.984,3.131,3.176c0,8.326-0.004,16.653-0.007,24.979c0,0.564,0,1.126,0,1.809
		c0.36,0,0.661,0,0.96,0c10.558,0,21.114-0.009,31.67,0.021c0.829,0.003,1.02-0.244,1.016-1.042
		c-0.026-8.808-0.016-17.613-0.016-26.42c0-1.27,0.35-1.812,1.147-1.787c0.762,0.021,1.068,0.529,1.068,1.773
		c0,8.779,0,17.557,0,26.336c0,0.331,0,0.664,0,1.119c1.218,0,2.363,0,3.508,0.001c1.961,0.003,2.859,0.89,2.869,2.83
		c0.002,0.678,0.015,1.355-0.006,2.031c-0.045,1.437-0.979,2.37-2.404,2.423c-0.224,0.009-0.451,0.003-0.677,0.003
		c-23.117,0.001-46.235,0.001-69.352,0c-2.316,0-3.09-0.776-3.091-3.102c-0.001-0.451-0.002-0.903,0-1.355
		c0.011-1.929,0.917-2.821,2.875-2.829C3.734,69.549,4.576,69.551,5.53,69.551z M31.049,69.505c0.017-0.276,0.04-0.495,0.04-0.714
		c0.001-8.689-0.007-17.379,0.015-26.068c0-0.718-0.246-0.914-0.933-0.91c-4.824,0.02-9.649,0.012-14.473,0.012
		c-1.171,0-1.172,0.002-1.172,1.163c0,8.491,0,16.983,0,25.476c0,0.332,0,0.665,0,1.042C20.064,69.505,25.501,69.505,31.049,69.505z
		 M73.262,71.791c-0.418,0-0.78,0-1.139,0c-22.729,0-45.453,0.001-68.177,0c-1.7,0-1.7-0.004-1.695,1.695
		c0.004,1.117,0.004,1.119,1.078,1.119c23.009,0.001,46.016,0.002,69.024,0c0.297,0,0.594-0.028,0.909-0.044
		C73.262,73.609,73.262,72.748,73.262,71.791z"/>
	<path fill-rule="evenodd" clip-rule="evenodd" fill="#3A9274" d="M50.037,56.229c-3.131,0-6.262,0.003-9.395-0.001
		c-2.261-0.003-3.648-1.371-3.655-3.623c-0.007-3.159-0.004-6.32,0.012-9.479c0.011-2.112,1.377-3.525,3.487-3.533
		c6.375-0.022,12.752-0.023,19.127,0.001c2.084,0.008,3.449,1.392,3.465,3.462c0.026,3.244,0.028,6.488,0.01,9.732
		c-0.012,2.053-1.429,3.435-3.485,3.44c-3.188,0.011-6.377,0.003-9.565,0.003C50.037,56.23,50.037,56.23,50.037,56.229z
		 M50.06,54.002c3.077,0,6.149,0.002,9.225-0.002c1.237,0,1.577-0.326,1.579-1.533c0.004-3.045,0.004-6.092-0.004-9.138
		c-0.002-1.148-0.366-1.503-1.533-1.503c-6.176-0.004-12.353-0.004-18.529,0c-1.253,0-1.578,0.337-1.58,1.625
		c-0.002,2.988,0,5.979,0,8.969c0,1.262,0.325,1.58,1.623,1.581C43.912,54.003,46.987,54.002,50.06,54.002z"/>
	<path fill-rule="evenodd" clip-rule="evenodd" fill="#3A9274" d="M64.011,7.311c-1.827,0-3.518,0-5.207,0
		c-13.32,0-26.642,0-39.963,0c-2.146,0-4.291,0.024-6.434-0.013c-0.666-0.013-0.959,0.174-0.851,0.856
		c0.026,0.165,0.028,0.343,0,0.507c-0.116,0.709,0.229,0.838,0.865,0.837c8.92-0.017,17.838-0.012,26.756-0.012
		c5.249,0,10.498-0.001,15.75,0c0.281,0,0.568-0.02,0.844,0.027c0.635,0.107,1.035,0.481,1.005,1.15
		c-0.031,0.62-0.423,0.963-1.033,1.03c-0.253,0.028-0.508,0.019-0.764,0.019c-14.393,0.004-28.787,0.008-43.18,0.01
		c-1.945,0-2.465-0.521-2.469-2.453c0-0.593,0-1.185,0-1.778c0.005-1.873,0.532-2.394,2.437-2.395
		c3.132-0.002,6.266-0.001,9.397-0.001c14.112,0,28.224,0,42.335,0.001c0.34,0,0.679-0.01,1.016,0.014
		c1.026,0.071,1.674,0.708,1.71,1.735c0.035,1.016,0.033,2.032,0.006,3.048c-0.026,1.116-0.681,1.781-1.806,1.814
		c-1.128,0.032-2.258,0.02-3.388-0.006c-0.754-0.018-1.263-0.49-1.218-1.117c0.056-0.755,0.537-1.08,1.253-1.091
		c0.734-0.012,1.469-0.03,2.201,0.003c0.532,0.023,0.794-0.129,0.744-0.709C63.98,8.345,64.011,7.896,64.011,7.311z"/>
	<path fill-rule="evenodd" clip-rule="evenodd" fill="#3A9274" d="M22.848,44.064c1.129,0,2.256-0.011,3.383,0.004
		c1.636,0.021,2.601,0.947,2.614,2.558c0.021,2.226,0.016,4.452-0.01,6.678c-0.018,1.417-0.974,2.402-2.391,2.423
		c-2.424,0.035-4.847,0.037-7.271,0c-1.423-0.022-2.374-0.994-2.395-2.425c-0.032-2.254-0.035-4.509-0.01-6.763
		c0.017-1.505,0.999-2.448,2.529-2.48c1.183-0.022,2.367-0.004,3.549-0.004C22.848,44.058,22.848,44.061,22.848,44.064z
		 M22.831,46.279c-1.041,0-2.083,0.023-3.124-0.011c-0.562-0.02-0.732,0.187-0.726,0.733c0.025,1.942,0.022,3.884,0.001,5.826
		c-0.005,0.504,0.153,0.705,0.674,0.701c2.111-0.019,4.223-0.016,6.332-0.002c0.476,0.003,0.645-0.178,0.641-0.648
		c-0.017-1.972-0.023-3.942,0.003-5.914c0.009-0.586-0.239-0.71-0.759-0.694C24.859,46.299,23.844,46.279,22.831,46.279z"/>
</g>
</svg>
