<?xml version="1.0" encoding="utf-8"?>
<!-- Generator: Adobe Illustrator 16.0.0, SVG Export Plug-In . SVG Version: 6.00 Build 0)  -->
<!DOCTYPE svg PUBLIC "-//W3C//DTD SVG 1.1//EN" "http://www.w3.org/Graphics/SVG/1.1/DTD/svg11.dtd">
<svg version="1.1" id="Ebene_1" xmlns="http://www.w3.org/2000/svg" xmlns:xlink="http://www.w3.org/1999/xlink" x="0px" y="0px"
	 width="78px" height="78px" viewBox="0 0 78 78" enable-background="new 0 0 78 78" xml:space="preserve">
<desc>Created with Lunacy</desc>
<path fill="#3A9274" stroke="#3A9274" stroke-width="0.2" stroke-miterlimit="10" d="M38.918,3.447c0-0.615,0-1.121,0-1.666
	c-0.565,0-1.066,0-1.584,0c0,0.589,0,1.116,0,1.666C37.892,3.447,38.37,3.447,38.918,3.447z"/>
<path fill="#3A9274" stroke="#3A9274" stroke-width="0.2" stroke-miterlimit="10" d="M2.498,39.837c0-0.604,0-1.13,0-1.646
	c-1.783-0.211-1.915-0.066-1.508,1.646C1.455,39.837,1.934,39.837,2.498,39.837z"/>
<path fill="#3A9274" stroke="#3A9274" stroke-width="0.2" stroke-miterlimit="10" d="M75.302,39.839c0-0.606,0-1.133,0-1.646
	c-0.583,0-1.079,0-1.581,0c0,0.587,0,1.094,0,1.646C74.259,39.839,74.738,39.839,75.302,39.839z"/>
<path fill="#3A9274" stroke="#3A9274" stroke-width="0.2" stroke-miterlimit="10" d="M33.865,3.709
	c-0.059-0.568-0.111-1.095-0.176-1.723c-0.623,0.098-1.147,0.179-1.719,0.269c0.084,0.619,0.152,1.119,0.229,1.684
	C32.797,3.857,33.275,3.792,33.865,3.709z"/>
<path fill="#3A9274" stroke="#3A9274" stroke-width="0.2" stroke-miterlimit="10" d="M3.075,33.106
	c-0.579-0.091-1.122-0.177-1.708-0.268c-0.098,0.639-0.174,1.136-0.261,1.711c0.609,0.073,1.133,0.135,1.708,0.205
	C2.906,34.169,2.982,33.691,3.075,33.106z"/>
<path fill="#3A9274" stroke="#3A9274" stroke-width="0.2" stroke-miterlimit="10" d="M28.458,2.993
	c-0.608,0.181-1.091,0.325-1.639,0.488c0.156,0.596,0.283,1.084,0.434,1.665c0.604-0.192,1.107-0.353,1.645-0.525
	C28.743,4.052,28.618,3.585,28.458,2.993z"/>
<path fill="#3A9274" stroke="#3A9274" stroke-width="0.2" stroke-miterlimit="10" d="M18.168,9.584
	c0.549-0.365,0.971-0.645,1.46-0.971c-0.356-0.514-0.656-0.948-0.977-1.413c-0.515,0.341-0.936,0.62-1.39,0.92
	C17.585,8.643,17.853,9.073,18.168,9.584z"/>
<path fill="#3A9274" stroke="#3A9274" stroke-width="0.2" stroke-miterlimit="10" d="M23.439,4.748
	C22.892,5,22.41,5.225,21.85,5.484c0.258,0.548,0.484,1.027,0.729,1.548c0.562-0.27,1.019-0.489,1.518-0.729
	C23.885,5.803,23.699,5.359,23.439,4.748z"/>
<path fill="#3A9274" stroke="#3A9274" stroke-width="0.2" stroke-miterlimit="10" d="M2.81,43.22
	c-0.603,0.094-1.133,0.174-1.719,0.262c0.109,0.601,0.201,1.104,0.306,1.678c0.571-0.092,1.077-0.17,1.659-0.26
	C2.973,44.329,2.898,43.824,2.81,43.22z"/>
<path fill="#3A9274" stroke="#3A9274" stroke-width="0.2" stroke-miterlimit="10" d="M71.979,49.828
	c0.58,0.176,1.086,0.327,1.641,0.493c0.173-0.604,0.313-1.094,0.468-1.637c-0.577-0.177-1.065-0.324-1.631-0.496
	C72.291,48.752,72.15,49.244,71.979,49.828z"/>
<path fill="#3A9274" stroke="#3A9274" stroke-width="0.2" stroke-miterlimit="10" d="M4.566,55.272
	c0.545-0.26,1.031-0.487,1.565-0.744c-0.244-0.543-0.454-1.012-0.702-1.565c-0.563,0.28-1.041,0.521-1.535,0.771
	C4.12,54.253,4.305,54.674,4.566,55.272z"/>
<path fill="#3A9274" stroke="#3A9274" stroke-width="0.2" stroke-miterlimit="10" d="M72.453,29.833
	c0.626-0.201,1.113-0.356,1.646-0.526c-0.177-0.582-0.326-1.075-0.498-1.641c-0.563,0.176-1.052,0.328-1.617,0.505
	C72.146,28.738,72.282,29.23,72.453,29.833z"/>
<path fill="#3A9274" stroke="#3A9274" stroke-width="0.2" stroke-miterlimit="10" d="M74.85,32.83
	c-0.613,0.101-1.142,0.188-1.709,0.282c0.112,0.604,0.207,1.104,0.315,1.673c0.579-0.094,1.083-0.174,1.649-0.265
	C75.02,33.931,74.941,33.429,74.85,32.83z"/>
<path fill="#3A9274" stroke="#3A9274" stroke-width="0.2" stroke-miterlimit="10" d="M73.145,44.914
	c0.613,0.082,1.139,0.151,1.729,0.233c0.089-0.604,0.159-1.104,0.246-1.685c-0.605-0.079-1.131-0.151-1.689-0.228
	C73.331,43.821,73.249,44.299,73.145,44.914z"/>
<path fill="#3A9274" stroke="#3A9274" stroke-width="0.2" stroke-miterlimit="10" d="M68.473,20.514
	c0.527-0.337,0.959-0.612,1.443-0.923c-0.324-0.508-0.614-0.959-0.934-1.46c-0.494,0.331-0.922,0.614-1.412,0.94
	C67.869,19.549,68.141,19.981,68.473,20.514z"/>
<path fill="#3A9274" stroke="#3A9274" stroke-width="0.2" stroke-miterlimit="10" d="M70.096,54.556
	c0.586,0.258,1.047,0.465,1.575,0.698c0.233-0.563,0.431-1.03,0.651-1.56c-0.537-0.252-0.998-0.467-1.53-0.715
	C70.555,53.519,70.346,53.985,70.096,54.556z"/>
<path fill="#3A9274" stroke="#3A9274" stroke-width="0.2" stroke-miterlimit="10" d="M8.665,58.924
	c-0.327-0.504-0.617-0.948-0.921-1.419c-0.516,0.328-0.951,0.604-1.436,0.91c0.318,0.495,0.61,0.945,0.938,1.454
	C7.741,59.54,8.163,59.258,8.665,58.924z"/>
<path fill="#3A9274" stroke="#3A9274" stroke-width="0.2" stroke-miterlimit="10" d="M72.346,24.278
	c-0.261-0.55-0.484-1.027-0.726-1.534c-0.565,0.274-1.021,0.494-1.526,0.741c0.262,0.561,0.479,1.023,0.723,1.546
	C71.35,24.77,71.809,24.542,72.346,24.278z"/>
<path fill="#3A9274" stroke="#3A9274" stroke-width="0.2" stroke-miterlimit="10" d="M14.193,12.704
	c0.463-0.41,0.845-0.747,1.282-1.132c-0.387-0.445-0.722-0.83-1.124-1.289c-0.448,0.404-0.84,0.758-1.264,1.142
	C13.475,11.873,13.792,12.241,14.193,12.704z"/>
<path fill="#3A9274" stroke="#3A9274" stroke-width="0.2" stroke-miterlimit="10" d="M3.786,29.805
	c0.165-0.579,0.302-1.069,0.457-1.621c-0.563-0.181-1.049-0.337-1.629-0.523c-0.162,0.588-0.302,1.101-0.456,1.663
	C2.746,29.498,3.233,29.642,3.786,29.805z"/>
<path fill="#3A9274" stroke="#3A9274" stroke-width="0.2" stroke-miterlimit="10" d="M2.128,48.683
	c0.188,0.598,0.347,1.104,0.521,1.653c0.59-0.192,1.071-0.351,1.605-0.528c-0.172-0.594-0.311-1.076-0.465-1.611
	C3.21,48.364,2.745,48.502,2.128,48.683z"/>
<path fill="#3A9274" stroke="#3A9274" stroke-width="0.2" stroke-miterlimit="10" d="M68.999,59.876
	c0.332-0.536,0.603-0.975,0.905-1.468c-0.489-0.313-0.922-0.591-1.432-0.915c-0.32,0.515-0.601,0.965-0.898,1.447
	C68.081,59.274,68.491,59.542,68.999,59.876z"/>
<path fill="#3A9274" stroke="#3A9274" stroke-width="0.2" stroke-miterlimit="10" d="M5.98,19.886c0-1.15,0-2.22,0-3.405
	c-1.531,0-3.009,0.04-4.484-0.023c-0.471-0.02-1.167-0.192-1.33-0.512c-0.164-0.323,0.095-0.998,0.364-1.38
	c3.242-4.606,9.44-4.314,12.177,0.532c0.141,0.249,0.558,0.481,0.849,0.484c4.239,0.031,8.479,0.033,12.718-0.004
	c0.303-0.002,0.726-0.296,0.886-0.573c1.366-2.371,3.384-3.655,6.123-3.695c2.802-0.042,4.8,1.401,6.294,3.638
	c0.556,0.834,0.151,1.505-0.892,1.526c-1.547,0.028-3.094,0.01-4.642,0.012c-0.333,0-0.667,0-1.062,0c0,1.168,0,2.238,0,3.444
	c1.63,0,3.229-0.041,4.822,0.02c0.638,0.025,1.265,0.272,1.896,0.418c-0.194,0.683-0.252,1.446-0.607,2.032
	c-1.494,2.479-5.32,3.476-8.288,2.246c-1.602-0.663-2.814-1.744-3.667-3.264c-0.153-0.274-0.59-0.549-0.896-0.552
	c-4.238-0.034-8.478-0.035-12.717,0.012c-0.311,0.004-0.742,0.364-0.908,0.671c-2.162,4.021-8.271,4.94-11.311,1.652
	c-0.453-0.489-0.804-1.097-1.104-1.699c-0.466-0.937-0.108-1.51,0.938-1.531c1.361-0.029,2.722-0.004,4.084-0.006
	C5.437,19.926,5.65,19.904,5.98,19.886z M37.04,14.737c-2.511-2.786-7.052-1.963-8.428,1.38c-0.378,0.92-0.873,1.25-1.862,1.24
	c-4.579-0.046-9.158-0.039-13.736-0.005c-0.895,0.007-1.444-0.233-1.745-1.128c-0.39-1.16-1.225-1.983-2.292-2.572
	c-2.029-1.121-4.855-0.666-6.104,1.078c1.202,0,2.334-0.002,3.467,0c1.213,0.004,1.423,0.204,1.427,1.385
	c0.006,1.361,0.005,2.723,0,4.084c-0.004,1.27-0.192,1.462-1.439,1.468c-1.252,0.006-2.504,0.001-3.756,0.001
	c0.16,0.428,0.372,0.681,0.634,0.86c2.779,1.885,6.758,0.75,8.054-2.336c0.335-0.794,0.75-1.145,1.645-1.137
	c4.702,0.039,9.405,0.032,14.108,0.004c0.811-0.006,1.245,0.303,1.522,1.042c1.108,2.957,4.338,3.971,7.36,2.843
	c0.533-0.2,0.971-0.651,1.454-0.986c-0.035-0.079-0.071-0.158-0.107-0.237c-0.293-0.017-0.588-0.048-0.882-0.05
	c-1.331-0.005-2.662-0.014-3.991,0.001c-0.813,0.01-1.193-0.355-1.186-1.176c0.016-1.484-0.005-2.97,0.006-4.454
	c0.01-1.068,0.236-1.291,1.327-1.3C33.963,14.729,35.41,14.737,37.04,14.737z"/>
<path fill="#3A9274" stroke="#3A9274" stroke-width="0.2" stroke-miterlimit="10" d="M38.918,3.447c-0.548,0-1.026,0-1.584,0
	c0-0.55,0-1.077,0-1.666c0.518,0,1.02,0,1.584,0C38.918,2.327,38.918,2.833,38.918,3.447z"/>
<path fill="#3A9274" stroke="#3A9274" stroke-width="0.2" stroke-miterlimit="10" d="M2.498,39.837c-0.563,0-1.042,0-1.508,0
	c-0.406-1.711-0.275-1.856,1.508-1.646C2.498,38.707,2.498,39.233,2.498,39.837z"/>
<path fill="#3A9274" stroke="#3A9274" stroke-width="0.2" stroke-miterlimit="10" d="M75.302,39.839c-0.563,0-1.043,0-1.581,0
	c0-0.552,0-1.06,0-1.646c0.502,0,0.998,0,1.581,0C75.302,38.706,75.302,39.231,75.302,39.839z"/>
<path fill="#3A9274" stroke="#3A9274" stroke-width="0.2" stroke-miterlimit="10" d="M33.865,3.709
	c-0.59,0.082-1.068,0.147-1.667,0.229c-0.077-0.564-0.145-1.064-0.229-1.684c0.572-0.089,1.096-0.17,1.719-0.269
	C33.754,2.616,33.807,3.142,33.865,3.709z"/>
<path fill="#3A9274" stroke="#3A9274" stroke-width="0.2" stroke-miterlimit="10" d="M3.075,33.106
	c-0.093,0.585-0.168,1.063-0.26,1.648c-0.575-0.07-1.1-0.132-1.708-0.205c0.086-0.575,0.163-1.072,0.261-1.711
	C1.953,32.931,2.496,33.016,3.075,33.106z"/>
<path fill="#3A9274" stroke="#3A9274" stroke-width="0.2" stroke-miterlimit="10" d="M28.458,2.993
	c0.16,0.593,0.286,1.059,0.439,1.628c-0.538,0.172-1.041,0.333-1.645,0.525c-0.151-0.581-0.278-1.069-0.434-1.665
	C27.366,3.317,27.85,3.173,28.458,2.993z"/>
<path fill="#3A9274" stroke="#3A9274" stroke-width="0.2" stroke-miterlimit="10" d="M18.168,9.584
	c-0.316-0.511-0.583-0.942-0.906-1.463c0.454-0.301,0.875-0.579,1.39-0.92c0.321,0.465,0.621,0.899,0.977,1.413
	C19.139,8.939,18.717,9.22,18.168,9.584z"/>
<path fill="#3A9274" stroke="#3A9274" stroke-width="0.2" stroke-miterlimit="10" d="M23.439,4.748
	c0.259,0.612,0.445,1.055,0.657,1.556c-0.499,0.24-0.956,0.46-1.518,0.729c-0.245-0.521-0.471-1-0.729-1.548
	C22.411,5.225,22.893,5,23.439,4.748z"/>
<path fill="#3A9274" stroke="#3A9274" stroke-width="0.2" stroke-miterlimit="10" d="M2.81,43.22
	c0.088,0.604,0.163,1.109,0.246,1.68c-0.582,0.09-1.088,0.168-1.659,0.26c-0.105-0.573-0.196-1.077-0.306-1.678
	C1.677,43.394,2.207,43.312,2.81,43.22z"/>
<path fill="#3A9274" stroke="#3A9274" stroke-width="0.2" stroke-miterlimit="10" d="M71.979,49.828
	c0.172-0.584,0.313-1.076,0.478-1.64c0.565,0.172,1.054,0.319,1.631,0.496c-0.155,0.543-0.295,1.031-0.468,1.637
	C73.064,50.155,72.561,50.004,71.979,49.828z"/>
<path fill="#3A9274" stroke="#3A9274" stroke-width="0.2" stroke-miterlimit="10" d="M4.566,55.272
	c-0.261-0.6-0.446-1.021-0.672-1.539c0.495-0.25,0.972-0.49,1.535-0.771c0.249,0.554,0.458,1.022,0.702,1.565
	C5.597,54.785,5.111,55.015,4.566,55.272z"/>
<path fill="#3A9274" stroke="#3A9274" stroke-width="0.2" stroke-miterlimit="10" d="M72.453,29.833
	c-0.171-0.603-0.309-1.095-0.469-1.661c0.564-0.177,1.054-0.33,1.617-0.505c0.172,0.565,0.32,1.059,0.496,1.641
	C73.566,29.477,73.079,29.632,72.453,29.833z"/>
<path fill="#3A9274" stroke="#3A9274" stroke-width="0.2" stroke-miterlimit="10" d="M74.85,32.83
	c0.092,0.599,0.17,1.102,0.258,1.69c-0.567,0.091-1.071,0.171-1.65,0.265c-0.107-0.568-0.203-1.069-0.316-1.673
	C73.708,33.018,74.234,32.931,74.85,32.83z"/>
<path fill="#3A9274" stroke="#3A9274" stroke-width="0.2" stroke-miterlimit="10" d="M73.145,44.914
	c0.104-0.615,0.188-1.093,0.285-1.677c0.561,0.074,1.084,0.146,1.689,0.227c-0.087,0.58-0.157,1.081-0.246,1.684
	C74.282,45.065,73.758,44.996,73.145,44.914z"/>
<path fill="#3A9274" stroke="#3A9274" stroke-width="0.2" stroke-miterlimit="10" d="M68.473,20.514
	c-0.332-0.532-0.604-0.964-0.902-1.443c0.49-0.326,0.918-0.609,1.412-0.94c0.319,0.5,0.609,0.952,0.935,1.46
	C69.432,19.901,69,20.177,68.473,20.514z"/>
<path fill="#3A9274" stroke="#3A9274" stroke-width="0.2" stroke-miterlimit="10" d="M70.096,54.556
	c0.25-0.568,0.459-1.037,0.696-1.576c0.532,0.248,0.993,0.465,1.53,0.717c-0.223,0.527-0.418,0.996-0.651,1.559
	C71.143,55.021,70.682,54.813,70.096,54.556z"/>
<path fill="#3A9274" stroke="#3A9274" stroke-width="0.2" stroke-miterlimit="10" d="M8.665,58.924
	c-0.502,0.334-0.924,0.616-1.418,0.945c-0.328-0.509-0.621-0.959-0.938-1.454c0.485-0.309,0.92-0.582,1.436-0.91
	C8.048,57.976,8.338,58.42,8.665,58.924z"/>
<path fill="#3A9274" stroke="#3A9274" stroke-width="0.2" stroke-miterlimit="10" d="M72.346,24.278
	c-0.537,0.264-0.996,0.491-1.529,0.753c-0.242-0.523-0.461-0.986-0.723-1.546c0.506-0.247,0.961-0.466,1.526-0.741
	C71.859,23.251,72.085,23.729,72.346,24.278z"/>
<path fill="#3A9274" stroke="#3A9274" stroke-width="0.2" stroke-miterlimit="10" d="M14.193,12.704
	c-0.4-0.463-0.718-0.831-1.106-1.28c0.424-0.384,0.816-0.738,1.264-1.142c0.401,0.459,0.736,0.844,1.124,1.289
	C15.038,11.958,14.656,12.293,14.193,12.704z"/>
<path fill="#3A9274" stroke="#3A9274" stroke-width="0.2" stroke-miterlimit="10" d="M3.786,29.805
	c-0.552-0.164-1.04-0.308-1.628-0.482c0.154-0.562,0.294-1.075,0.456-1.663c0.58,0.186,1.066,0.343,1.629,0.523
	C4.087,28.735,3.95,29.226,3.786,29.805z"/>
<path fill="#3A9274" stroke="#3A9274" stroke-width="0.2" stroke-miterlimit="10" d="M2.128,48.683
	c0.617-0.181,1.083-0.318,1.662-0.486c0.155,0.535,0.293,1.019,0.465,1.611c-0.534,0.18-1.015,0.336-1.605,0.528
	C2.475,49.786,2.316,49.28,2.128,48.683z"/>
<path fill="#3A9274" stroke="#3A9274" stroke-width="0.2" stroke-miterlimit="10" d="M68.999,59.876
	c-0.508-0.334-0.918-0.602-1.425-0.936c0.299-0.482,0.578-0.934,0.898-1.447c0.51,0.324,0.941,0.602,1.432,0.915
	C69.602,58.901,69.331,59.34,68.999,59.876z"/>
<path fill="#3A9274" stroke="#3A9274" stroke-width="0.2" stroke-miterlimit="10" d="M45.807,64.957c0-1.192,0-2.283,0-3.372
	c-1.148,0-2.216,0-3.281,0c0,1.161,0,2.251,0,3.372C43.658,64.957,44.7,64.957,45.807,64.957z M51.018,64.953
	c0-1.17,0-2.263,0-3.373c-1.139,0-2.205,0-3.297,0c0,1.151,0,2.241,0,3.373C48.839,64.953,49.882,64.953,51.018,64.953z
	 M45.833,66.709c-1,0-1.949-0.019-2.894,0.019c-0.168,0.01-0.463,0.254-0.469,0.396c-0.041,0.998-0.021,1.999-0.021,3.01
	c1.217,0,2.278,0,3.382,0C45.833,68.989,45.833,67.899,45.833,66.709z M51.038,66.778c-1.146,0-2.231,0-3.323,0
	c0,1.168,0,2.26,0,3.361c1.146,0,2.211,0,3.323,0C51.038,68.989,51.038,67.897,51.038,66.778z"/>
<path fill="#3A9274" stroke="#3A9274" stroke-width="0.2" stroke-miterlimit="10" d="M71.064,1.427
	c-0.002-1.171-0.252-1.424-1.41-1.424C64.518,0,59.382-0.002,54.244,0.008c-0.359,0.001-0.762,0.034-1.075,0.189
	c-3.331,1.636-6.646,3.304-9.974,4.95c-0.578,0.287-0.784,0.728-0.771,1.348c0.024,1.113,0.006,2.227,0.016,3.341
	c0.014,1.223,0.244,1.456,1.481,1.457c4.054,0.004,8.106,0.001,12.161,0.001c0.333,0,0.664,0,1.016,0c0,9.426,0,18.764,0,28.003
	c-0.629-0.577-1.214-1.245-1.924-1.716c-0.535-0.352-0.607-0.736-0.605-1.28c0.018-2.352,0.011-4.704,0.007-7.056
	c-0.001-1.308-0.22-1.537-1.487-1.538c-9.992-0.002-19.989-0.003-29.984-0.001c-1.222,0-1.438,0.228-1.438,1.483
	c0,1.918-0.049,3.84,0.022,5.755c0.047,1.294-0.194,2.254-1.222,3.267c-3.151,3.1-6.107,6.399-9.137,9.621
	c-1.336,1.42-2.688,2.823-3.986,4.276c-0.226,0.254-0.396,0.779-0.285,1.051C7.171,53.437,7.647,53.617,8,53.726
	c0.313,0.092,0.675,0.023,1.015,0.023c1.293,0.002,2.585,0.001,3.963,0.001c0,0.408,0,0.71,0,1.013
	c-0.002,7.211-0.004,14.422-0.007,21.631c0,1.424,0.174,1.604,1.593,1.604c15.689,0.001,31.377,0.001,47.065,0
	c1.453,0,1.643-0.19,1.645-1.665c0-7.119,0.002-14.234,0.002-21.354c0-0.367,0-0.737,0-1.24c1.662,0,3.178,0.041,4.687-0.026
	c0.429-0.021,1.009-0.253,1.204-0.577c0.141-0.232-0.146-0.871-0.416-1.175c-1.275-1.429-2.598-2.821-3.938-4.196
	c-0.48-0.492-0.715-0.992-0.713-1.709c0.023-11.233,0.02-22.466,0.021-33.699c0.001-0.33,0-0.659,0-1.062
	c1.925,0,3.717,0.006,5.509-0.001c1.149-0.005,1.431-0.281,1.435-1.418C71.07,7.059,71.068,4.244,71.064,1.427z M23.438,29.541
	c9.764,0,19.514,0,29.369,0c0,2.57,0,5.065,0,7.67c-0.533,0.025-1.039,0.049-1.718,0.081c0-1.26-0.01-2.451,0.002-3.64
	c0.029-2.666,0.031-2.459-2.491-2.457c-7.328,0.006-14.658,0.001-21.988,0.002c-1.28,0.001-1.496,0.218-1.501,1.514
	c-0.007,1.479-0.001,2.958-0.001,4.5c-0.601,0-1.109,0-1.671,0C23.438,34.658,23.438,32.139,23.438,29.541z M49.338,32.977
	c0,1.453,0,2.809,0,4.232c-7.472,0-14.908,0-22.406,0c0-1.411,0-2.789,0-4.232C34.383,32.977,41.818,32.977,49.338,32.977z
	 M33.73,76.215c-2.853,0-5.655,0-8.536,0c0-4.853,0-9.69,0-14.612c2.822,0,5.643,0,8.536,0C33.73,66.519,33.73,71.336,33.73,76.215z
	 M61.438,76.213c-8.603,0-17.188,0-25.875,0c-0.016-0.376-0.045-0.733-0.045-1.093c-0.003-4.581,0-9.161-0.003-13.739
	c0-1.444-0.143-1.585-1.604-1.585c-3.001-0.002-6.002-0.004-9.004,0c-1.333,0.002-1.517,0.182-1.517,1.489
	c-0.003,4.608-0.001,9.22-0.001,13.831c0,0.338,0,0.675,0,1.087c-2.881,0-5.708,0-8.65,0c0-7.487,0-14.901,0-22.39
	c6.043,0,12.056,0,18.178,0c0,0.746,0.017,1.449-0.004,2.154c-0.025,0.842,0.325,1.258,1.205,1.25
	c2.661-0.021,5.321-0.025,7.981-0.008c0.883,0.008,1.23-0.4,1.2-1.248c-0.026-0.679-0.005-1.357-0.005-2.129
	c6.059,0,12.066,0,18.143,0C61.438,61.272,61.438,68.71,61.438,76.213z M34.732,51.925c0-0.507,0-1.009,0-1.572
	c2.249,0,4.487,0,6.808,0c0,0.576,0,1.033,0,1.572C39.273,51.925,37.04,51.925,34.732,51.925z M41.514,53.81
	c0,0.598,0,1.078,0,1.614c-2.271,0-4.484,0-6.773,0c0-0.536,0-1.042,0-1.614C36.981,53.81,39.22,53.81,41.514,53.81z M65.923,51.464
	c0.101,0.105,0.177,0.236,0.341,0.461c-7.689,0-15.268,0-22.97,0c0-0.777-0.011-1.543,0.002-2.307
	c0.011-0.737-0.362-1.085-1.075-1.086c-2.724-0.004-5.445,0.002-8.167,0.002c-0.758,0-1.148,0.357-1.137,1.133
	c0.01,0.736,0.002,1.475,0.002,2.303c-7.712,0-15.251,0-22.969,0c0.234-0.306,0.372-0.52,0.543-0.703
	c3.618-3.854,7.245-7.703,10.854-11.57c0.449-0.479,0.897-0.715,1.593-0.713c10.145,0.025,20.292,0.012,30.437,0.04
	c0.436,0.001,0.992,0.189,1.282,0.492L65.923,51.464z M58.996,16.526c1.111,0,2.188,0,3.327,0c0,9.472,0,18.931,0,28.56
	c-1.152-1.226-2.208-2.331-3.237-3.468c-0.143-0.156-0.175-0.456-0.175-0.691c-0.004-8.003,0.002-16.008,0.008-24.014
	C58.919,16.823,58.952,16.735,58.996,16.526z M58.963,14.671c0-1.101,0-2.163,0-3.339c1.143,0,2.215,0,3.354,0
	c0,1.1,0,2.186,0,3.339C61.205,14.671,60.115,14.671,58.963,14.671z M69.23,9.476c-8.323,0-16.627,0-25.058,0
	c0-0.883-0.036-1.656,0.022-2.421c0.019-0.24,0.248-0.562,0.468-0.674c2.946-1.5,5.909-2.972,8.873-4.439
	c0.241-0.119,0.528-0.204,0.796-0.205c3.4-0.013,6.805-0.008,10.207-0.002c0.115,0,0.234,0.042,0.438,0.081c0,0.803,0,1.594,0,2.449
	c0.597,0,1.103,0,1.715,0c0-0.805,0-1.594,0-2.459c0.889,0,1.67,0,2.539,0C69.23,4.337,69.23,6.877,69.23,9.476z"/>
<path fill="#3A9274" stroke="#3A9274" stroke-width="0.2" stroke-miterlimit="10" d="M45.807,64.957c-1.105,0-2.147,0-3.281,0
	c0-1.121,0-2.211,0-3.372c1.065,0,2.133,0,3.281,0C45.807,62.674,45.807,63.765,45.807,64.957z"/>
<path fill="#3A9274" stroke="#3A9274" stroke-width="0.2" stroke-miterlimit="10" d="M51.018,64.953c-1.136,0-2.179,0-3.297,0
	c0-1.132,0-2.222,0-3.373c1.092,0,2.158,0,3.297,0C51.018,62.69,51.018,63.783,51.018,64.953z"/>
<path fill="#3A9274" stroke="#3A9274" stroke-width="0.2" stroke-miterlimit="10" d="M45.833,66.709c0,1.19,0,2.28,0,3.425
	c-1.104,0-2.165,0-3.382,0c0-1.011-0.021-2.012,0.021-3.01c0.006-0.145,0.299-0.389,0.467-0.396
	C43.884,66.69,44.833,66.709,45.833,66.709z"/>
<path fill="#3A9274" stroke="#3A9274" stroke-width="0.2" stroke-miterlimit="10" d="M51.038,66.778c0,1.119,0,2.211,0,3.361
	c-1.112,0-2.177,0-3.323,0c0-1.103,0-2.193,0-3.361C48.807,66.778,49.895,66.778,51.038,66.778z"/>
<path fill="#3A9274" stroke="#3A9274" stroke-width="0.2" stroke-miterlimit="10" d="M66.65,7.764c-0.58,0-1.063,0-1.603,0
	c0-0.544,0-1.049,0-1.613c0.53,0,1.035,0,1.603,0C66.65,6.681,66.65,7.185,66.65,7.764z"/>
<path fill="#3A9274" stroke="#3A9274" stroke-width="0.2" stroke-miterlimit="10" d="M27.677,68.536c0,0.543,0,1.027,0,1.581
	c-0.527,0-1.035,0-1.613,0c0-0.488,0-0.994,0-1.581C26.558,68.536,27.061,68.536,27.677,68.536z"/>
</svg>
