<?xml version="1.0" encoding="utf-8"?>
<!-- Generator: Adobe Illustrator 16.0.0, SVG Export Plug-In . SVG Version: 6.00 Build 0)  -->
<!DOCTYPE svg PUBLIC "-//W3C//DTD SVG 1.1//EN" "http://www.w3.org/Graphics/SVG/1.1/DTD/svg11.dtd">
<svg version="1.1" id="Ebene_1" xmlns="http://www.w3.org/2000/svg" xmlns:xlink="http://www.w3.org/1999/xlink" x="0px" y="0px"
	 width="78px" height="78px" viewBox="-9 -1.5 78 78" enable-background="new -9 -1.5 78 78" xml:space="preserve">
<desc>Created with Lunacy</desc>
<g id="portapapeles">
	<path id="Shape" fill="#3A9274" stroke="#FFFFFF" stroke-width="0.5" d="M115.401,52.502h44.996c4.141-0.004,7.496-3.359,7.5-7.499
		V-7.493c-0.004-4.14-3.359-7.495-7.5-7.5h-8.473c-0.705-0.792-1.715-1.247-2.775-1.25h-3.854c-0.607-3.611-3.734-6.256-7.396-6.256
		c-3.663,0-6.788,2.645-7.396,6.256h-3.854c-1.061,0.003-2.07,0.458-2.775,1.25h-8.475c-4.14,0.004-7.494,3.359-7.498,7.5v52.496
		C107.907,49.143,111.262,52.498,115.401,52.502L115.401,52.502z M160.397,33.754h-8.748c-1.381,0-2.5,1.119-2.5,2.5v8.749h-32.497
		c-0.69,0-1.251-0.56-1.251-1.251V-6.243c0-0.69,0.561-1.25,1.251-1.25h6.249c0,2.071,1.68,3.75,3.75,3.75h22.498
		c2.07,0,3.75-1.679,3.75-3.75h6.25c0.689,0,1.248,0.56,1.248,1.25V33.754z M158.63,36.254l-6.98,6.981v-6.981H158.63z
		 M126.651-13.742h4.999c0.69,0,1.251-0.56,1.251-1.25c0-2.761,2.238-5,4.999-5s4.999,2.238,4.999,5c0,0.691,0.561,1.25,1.25,1.25h5
		c0.689,0,1.25,0.56,1.25,1.25v5c0,0.69-0.561,1.25-1.25,1.25h-22.498c-0.691,0-1.25-0.56-1.25-1.25v-5
		C125.401-13.182,125.96-13.742,126.651-13.742L126.651-13.742z M110.402-7.493c0-2.761,2.238-5,4.999-5h7.5v2.5h-6.249
		c-2.071,0-3.75,1.679-3.75,3.75v49.995c0,2.072,1.679,3.75,3.75,3.75h32.712c0.516-0.002,1.027-0.109,1.5-0.319
		c0.023-0.009,0.043-0.024,0.064-0.034c0.402-0.184,0.77-0.438,1.084-0.75l9.785-9.784c0.307-0.313,0.559-0.677,0.74-1.077
		c0.012-0.026,0.029-0.047,0.039-0.074c0.209-0.472,0.316-0.982,0.318-1.5V-6.243c0-2.071-1.68-3.75-3.75-3.75h-6.246v-2.5h7.498
		c2.762,0,5,2.238,5,5v52.496c0,2.761-2.238,4.999-5,4.999h-44.996c-2.761,0-4.999-2.238-4.999-4.999V-7.493z"/>
	<path id="Shape_1_" fill="#3A9274" stroke="#FFFFFF" stroke-width="0.5" d="M131.65-8.742h12.499c0.691,0,1.25-0.56,1.25-1.25
		c0-0.69-0.559-1.25-1.25-1.25H131.65c-0.69,0-1.249,0.56-1.249,1.25C130.401-9.302,130.96-8.742,131.65-8.742L131.65-8.742z"/>
	<path id="Shape_2_" fill="#3A9274" stroke="#FFFFFF" stroke-width="0.5" d="M129.151,10.006c-0.689,0-1.25,0.56-1.25,1.25v1.25
		h-7.499V5.006h3.75c0.69,0,1.249-0.56,1.249-1.25c0-0.69-0.559-1.25-1.249-1.25h-3.75c-1.38,0-2.499,1.119-2.499,2.5v7.499
		c0,1.381,1.119,2.5,2.499,2.5h7.499c1.381,0,2.5-1.119,2.5-2.5v-1.25C130.401,10.565,129.843,10.006,129.151,10.006L129.151,10.006
		z"/>
	<path id="Shape_3_" fill="#3A9274" stroke="#FFFFFF" stroke-width="0.5" d="M127.901,20.005h-7.499
		c-1.38,0-2.499,1.119-2.499,2.499v7.5c0,1.381,1.119,2.5,2.499,2.5h7.499c1.381,0,2.5-1.119,2.5-2.5v-7.5
		C130.401,21.124,129.282,20.005,127.901,20.005L127.901,20.005z M120.402,30.004v-7.5h7.499v7.5H120.402z"/>
	<path id="Shape_4_" fill="#3A9274" stroke="#FFFFFF" stroke-width="0.5" d="M134.15,7.506h6.249c0.691,0,1.25-0.56,1.25-1.25
		c0-0.69-0.559-1.25-1.25-1.25h-6.249c-0.69,0-1.249,0.56-1.249,1.25C132.901,6.947,133.46,7.506,134.15,7.506L134.15,7.506z"/>
	<path id="Shape_5_" fill="#3A9274" stroke="#FFFFFF" stroke-width="0.5" d="M156.647,5.006h-11.248c-0.691,0-1.25,0.56-1.25,1.25
		c0,0.691,0.559,1.25,1.25,1.25h11.248c0.691,0,1.25-0.56,1.25-1.25C157.897,5.566,157.339,5.006,156.647,5.006L156.647,5.006z"/>
	<path id="Shape_6_" fill="#3A9274" stroke="#FFFFFF" stroke-width="0.5" d="M134.15,12.506h12.499c0.691,0,1.25-0.56,1.25-1.25
		c0-0.69-0.559-1.25-1.25-1.25H134.15c-0.69,0-1.249,0.56-1.249,1.25C132.901,11.946,133.46,12.506,134.15,12.506L134.15,12.506z"/>
	<path id="Shape_7_" fill="#3A9274" stroke="#FFFFFF" stroke-width="0.5" d="M156.649,10.006h-5c-0.691,0-1.25,0.56-1.25,1.25
		c0,0.691,0.559,1.25,1.25,1.25h5c0.689,0,1.248-0.56,1.248-1.25C157.897,10.565,157.339,10.006,156.649,10.006L156.649,10.006z"/>
	<path id="Shape_8_" fill="#3A9274" stroke="#FFFFFF" stroke-width="0.5" d="M134.15,25.004h6.249c0.691,0,1.25-0.559,1.25-1.249
		s-0.559-1.251-1.25-1.251h-6.249c-0.69,0-1.249,0.561-1.249,1.251S133.46,25.004,134.15,25.004L134.15,25.004z"/>
	<path id="Shape_9_" fill="#3A9274" stroke="#FFFFFF" stroke-width="0.5" d="M156.647,22.504h-11.248
		c-0.691,0-1.25,0.561-1.25,1.251s0.559,1.249,1.25,1.249h11.248c0.691,0,1.25-0.559,1.25-1.249S157.339,22.504,156.647,22.504
		L156.647,22.504z"/>
	<path id="Shape_10_" fill="#3A9274" stroke="#FFFFFF" stroke-width="0.5" d="M146.649,27.504H134.15c-0.69,0-1.249,0.56-1.249,1.25
		s0.559,1.25,1.249,1.25h12.499c0.691,0,1.25-0.56,1.25-1.25S147.341,27.504,146.649,27.504L146.649,27.504z"/>
	<path id="Shape_11_" fill="#3A9274" stroke="#FFFFFF" stroke-width="0.5" d="M156.649,27.504h-5c-0.691,0-1.25,0.56-1.25,1.25
		s0.559,1.25,1.25,1.25h5c0.689,0,1.248-0.56,1.248-1.25S157.339,27.504,156.649,27.504L156.649,27.504z"/>
	<path id="Shape_12_" fill="#3A9274" stroke="#FFFFFF" stroke-width="0.5" d="M130.634,0.531l-5.393,7.548l-1.457-1.456
		c-0.49-0.474-1.27-0.467-1.752,0.015s-0.488,1.262-0.015,1.752l2.499,2.5c0.234,0.235,0.553,0.366,0.884,0.366h0.103
		c0.367-0.03,0.701-0.221,0.914-0.52l6.249-8.749c0.28-0.362,0.341-0.849,0.156-1.268s-0.583-0.704-1.04-0.743
		c-0.455-0.039-0.896,0.176-1.148,0.558V0.531z"/>
</g>
<path fill-rule="evenodd" clip-rule="evenodd" fill="#3A9274" d="M-4.427,30.995c-0.914,0.782-1.595,1.351-2.259,1.937
	c-0.566,0.501-1.164,1.096-1.868,0.317c-0.76-0.837,0.063-1.324,0.586-1.782c4.531-3.977,9.076-7.936,13.62-11.898
	c7.627-6.654,15.263-13.306,22.885-19.968c1.552-1.356,1.632-1.364,3.149-0.042c8.908,7.774,17.822,15.541,26.736,23.31
	c3.146,2.742,6.289,5.486,9.434,8.23c0.262,0.229,0.516,0.468,0.77,0.706c0.469,0.444,0.801,1.03,0.154,1.444
	c-0.352,0.226-1.117,0.172-1.488-0.073c-0.855-0.563-1.584-1.319-2.59-2.193c0,0.644,0,1.045,0,1.445c0,14.071,0,28.144,0,42.216
	c0,1.764-0.088,1.856-1.822,1.856c-21.842,0-43.687,0.001-65.528,0c-1.658-0.001-1.777-0.122-1.777-1.784
	c-0.001-14.071-0.001-28.144-0.001-42.215C-4.427,32.088-4.427,31.675-4.427,30.995z M62.749,74.458c0-0.516,0-0.897,0-1.278
	c0-13.8-0.047-27.599,0.057-41.398c0.016-1.922-0.623-3.079-2.014-4.274C52.589,20.456,44.458,13.318,36.304,6.21
	c-2.057-1.792-4.115-3.583-6.175-5.376c-2.358,2.063-4.624,4.048-6.894,6.028C14.938,14.102,6.643,21.344-1.671,28.563
	c-0.576,0.502-0.823,1.006-0.822,1.778c0.021,12.832,0.013,25.665,0.012,38.499c0,1.845,0,3.691,0,5.617
	C19.287,74.458,40.952,74.458,62.749,74.458z"/>
<path fill-rule="evenodd" clip-rule="evenodd" d="M-160.396,66.091c-0.395,0.654-0.609,1.237-1.016,1.612
	c-0.292,0.269-0.977,0.481-1.236,0.32c-0.288-0.181-0.526-0.932-0.377-1.232c0.647-1.307,1.396-2.574,2.223-3.777
	c0.192-0.281,0.941-0.476,1.247-0.325c1.278,0.623,2.523,1.336,3.691,2.145c0.311,0.214,0.309,0.879,0.45,1.339
	c-0.473,0.1-0.967,0.338-1.41,0.264c-0.462-0.077-0.874-0.453-1.528-0.583c0.367,0.85,0.679,1.728,1.107,2.544
	c3.961,7.551,11.648,11.287,18.931,10.688c8.861-0.73,15.535-6.222,17.88-14.407c0.073-0.259,0.091-0.604,0.267-0.749
	c0.319-0.261,0.784-0.604,1.102-0.531c0.294,0.067,0.68,0.64,0.665,0.974c-0.03,0.675-0.261,1.354-0.486,2.004
	c-3.351,9.657-12.915,15.84-23.073,14.582c-8.582-1.063-14.61-5.749-17.96-13.779C-160.049,66.864-160.19,66.557-160.396,66.091z"/>
<path fill-rule="evenodd" clip-rule="evenodd" d="M-118.644,52.748c0.315-0.605,0.438-1.115,0.763-1.383
	c0.323-0.268,0.943-0.505,1.252-0.361c0.273,0.127,0.516,0.876,0.392,1.206c-0.446,1.182-1.045,2.31-1.605,3.446
	c-0.347,0.704-0.861,0.926-1.611,0.545c-1.028-0.521-2.089-0.981-3.118-1.503c-0.566-0.286-1.141-0.656-0.741-1.427
	c0.366-0.708,0.956-0.656,1.583-0.33c0.305,0.16,0.631,0.283,1.219,0.544c-0.425-1.103-0.717-2.033-1.129-2.907
	c-3.523-7.458-11.548-11.975-19.763-11.145c-8.328,0.842-14.883,6.232-17.289,14.223c-0.055,0.184-0.089,0.375-0.152,0.557
	c-0.217,0.62-0.518,1.183-1.315,0.911c-0.777-0.264-0.719-0.884-0.55-1.533c2.268-8.739,10.09-15.377,19.051-16.16
	c10.081-0.881,19.225,4.943,22.64,14.414C-118.932,52.09-118.82,52.326-118.644,52.748z"/>
<g>
	<g>
		<path fill-rule="evenodd" clip-rule="evenodd" fill="#3A9274" stroke="#3A9274" stroke-width="0.6" d="M30.699,48.77
			c-1.105,1.014-2.258,1.982-3.316,3.047c-1.854,1.862-3.653,3.775-5.472,5.67c-0.876,0.918-1.933,1.319-3.166,0.989
			c-2.287-0.615-3.029-3.4-1.33-5.077c2.844-2.807,5.733-5.568,8.607-8.343c0.178-0.172,0.392-0.302,0.757-0.577
			c-1.048-0.989-1.966-1.868-2.913-2.724c-0.117-0.101-0.407-0.082-0.591-0.033c-2.138,0.594-4.068,0.199-5.791-1.195
			c-0.732-0.592-0.741-0.648-0.257-1.439c-0.7-0.892-1.291-1.876-1.124-3.051c0.108-0.769,0.399-1.539,0.744-2.243
			c0.286-0.584,0.652-0.585,1.125-0.126c0.787,0.766,1.551,1.558,2.4,2.413c0.234-0.281,0.443-0.538,0.69-0.836
			c-1.042-1.038-2.108-2.096-3.17-3.158c-0.722-0.725-0.708-1.014,0.156-1.551c2.036-1.27,4.172-1.46,6.302-0.318
			c2.137,1.144,3.311,2.964,3.322,5.428c0,0.642-0.187,1.279-0.227,1.922c-0.016,0.248,0.065,0.572,0.225,0.753
			c0.794,0.916,1.634,1.79,2.483,2.709c0.316-0.301,0.488-0.469,0.667-0.625c1.03-0.861,2.065-1.717,3.101-2.577
			c0.173-0.144,0.346-0.287,0.575-0.478c-0.437-0.385-0.805-0.712-1.193-1.052c-0.953,0.409-1.165,0.366-1.975-0.442
			c-0.592-0.587-1.175-1.178-1.762-1.764c-0.372-0.371-0.381-0.712,0.011-1.094c1.2-1.181,2.388-2.372,3.567-3.573
			c0.384-0.388,0.733-0.379,1.099-0.012c0.686,0.681,1.373,1.365,2.05,2.048c0.547,0.55,0.506,1.149,0.09,1.786
			c0.347,0.325,0.673,0.629,1.062,0.999c0.924-0.745,1.549-0.122,2.231,0.541c1.506,1.46,2.92,2.975,3.715,4.961
			c0.77,1.915,0.937,3.863,0.272,5.828c-0.098,0.286-0.433,0.485-0.655,0.718c-0.219-0.227-0.498-0.413-0.631-0.681
			c-0.726-1.448-1.387-2.935-2.138-4.371c-0.193-0.37-0.591-0.724-0.97-0.885c-0.34-0.144-0.917-0.167-1.17,0.031
			c-0.755,0.588-1.631,1.208-2.023,2.022c-0.454,0.93-1.252,1.482-1.788,2.326c0.394,0.402,0.787,0.817,1.205,1.218
			c2.563,2.489,5.131,4.967,7.691,7.452c0.927,0.909,1.285,1.988,0.804,3.24c-0.743,1.912-3.191,2.445-4.643,0.979
			c-2.73-2.762-5.425-5.564-8.128-8.348c-0.221-0.223-0.432-0.452-0.651-0.683C30.613,48.652,30.658,48.711,30.699,48.77z
			 M18.286,39.733c1.594,1.132,3.228,1.385,4.971,0.771c0.532-0.194,0.906-0.138,1.312,0.281c4.742,4.907,9.497,9.805,14.245,14.705
			c0.457,0.467,0.903,0.938,1.38,1.381c0.574,0.525,1.309,0.584,1.984,0.209c0.624-0.343,1.027-1.047,0.822-1.753
			c-0.133-0.463-0.448-0.925-0.797-1.269C36.994,48.98,31.764,43.923,26.536,38.87c-0.401-0.385-0.546-0.726-0.331-1.29
			c0.834-2.181,0.226-4.346-1.583-5.85c-1.552-1.291-4.153-1.438-5.742-0.289c1.053,1.05,2.103,2.091,3.145,3.139
			c0.637,0.641,0.635,0.786-0.001,1.422C20.806,37.225,19.582,38.443,18.286,39.733z M27.165,45.286
			c-0.758,0.818-1.518,1.708-2.349,2.528c-2.162,2.12-4.364,4.202-6.533,6.317c-0.933,0.908-0.8,2.343,0.234,3.019
			c0.801,0.528,1.792,0.343,2.597-0.489c2.403-2.484,4.804-4.968,7.206-7.459c0.463-0.479,0.92-0.971,1.419-1.5
			C28.917,46.931,28.133,46.197,27.165,45.286z M35.493,32.366c-0.646-0.61-1.256-1.193-1.76-1.67
			c-0.963,0.963-1.955,1.956-2.895,2.901c0.528,0.545,1.122,1.15,1.711,1.757c0.825-0.443,1.188-0.386,1.883,0.304
			c0.236,0.238,0.486,0.465,0.71,0.716c0.62,0.691,0.622,1.22-0.037,1.864c-0.572,0.558-1.183,1.081-1.695,1.549
			c0.657,0.68,1.185,1.221,1.72,1.779c-0.008,0.003,0.021,0.007,0.029-0.01c0.632-0.614,1.247-1.226,1.876-1.835
			c0.857-0.828,1.954-0.961,2.935-0.295c0.437,0.3,0.86,0.673,1.161,1.104c0.618,0.9,1.158,1.872,1.767,2.883
			c0.023-3.681-2.094-6.092-4.573-8.301c-0.836,0.458-1.268,0.398-1.929-0.251c-0.202-0.206-0.41-0.413-0.617-0.619
			C35.111,33.569,35.054,33.227,35.493,32.366z M34.439,42.841c-0.749-0.755-1.459-1.467-2.187-2.207
			c-0.344,0.321-0.722,0.683-1.142,1.078c0.796,0.752,1.536,1.452,2.242,2.129C33.761,43.467,34.14,43.12,34.439,42.841z
			 M17.516,34.889c-0.542,1.265-0.258,2.666,0.53,3.255c0.495-0.437,0.976-0.861,1.411-1.241
			C18.799,36.22,18.181,35.581,17.516,34.889z"/>
	</g>
	<g>
		<path fill-rule="evenodd" clip-rule="evenodd" fill="#3A9274" stroke="#FFFFFF" stroke-width="0.4" d="M4.534,52.322
			c-0.486,0.811-0.754,1.526-1.255,1.99c-0.358,0.33-1.202,0.593-1.523,0.397c-0.356-0.226-0.649-1.149-0.465-1.521
			c0.798-1.615,1.721-3.175,2.742-4.664c0.238-0.343,1.162-0.585,1.537-0.396c1.578,0.765,3.113,1.646,4.555,2.644
			c0.381,0.265,0.379,1.087,0.555,1.649c-0.583,0.128-1.192,0.418-1.74,0.331c-0.571-0.097-1.079-0.562-1.884-0.722
			c0.453,1.049,0.835,2.129,1.364,3.136c4.888,9.316,14.37,13.923,23.354,13.184c10.929-0.899,19.16-7.672,22.055-17.771
			c0.091-0.32,0.111-0.746,0.327-0.922c0.397-0.32,0.971-0.744,1.36-0.659c0.363,0.087,0.839,0.789,0.824,1.203
			c-0.041,0.833-0.321,1.672-0.604,2.473c-4.132,11.913-15.931,19.543-28.461,17.987C16.689,69.35,9.252,63.571,5.119,53.665
			C4.96,53.281,4.787,52.896,4.534,52.322z"/>
		<path fill-rule="evenodd" clip-rule="evenodd" fill="#3A9274" stroke="#FFFFFF" stroke-width="0.4" d="M56.036,35.867
			c0.388-0.75,0.54-1.375,0.942-1.707c0.396-0.328,1.164-0.624,1.543-0.445c0.342,0.156,0.636,1.08,0.481,1.489
			c-0.548,1.457-1.287,2.849-1.977,4.248c-0.426,0.87-1.062,1.144-1.99,0.674c-1.268-0.644-2.577-1.211-3.846-1.854
			c-0.697-0.354-1.41-0.81-0.913-1.761c0.448-0.873,1.178-0.808,1.952-0.406c0.375,0.196,0.781,0.349,1.501,0.67
			c-0.524-1.358-0.88-2.508-1.391-3.586c-4.343-9.201-14.244-14.771-24.379-13.747C17.688,20.479,9.602,27.128,6.635,36.985
			c-0.069,0.228-0.112,0.465-0.189,0.688c-0.269,0.764-0.64,1.457-1.622,1.124c-0.959-0.324-0.889-1.089-0.68-1.892
			c2.797-10.782,12.447-18.968,23.5-19.936c12.434-1.086,23.714,6.097,27.927,17.782C55.68,35.054,55.819,35.345,56.036,35.867z"/>
	</g>
</g>
</svg>
