<?xml version="1.0" encoding="utf-8"?>
<!-- Generator: Adobe Illustrator 16.0.0, SVG Export Plug-In . SVG Version: 6.00 Build 0)  -->
<!DOCTYPE svg PUBLIC "-//W3C//DTD SVG 1.1//EN" "http://www.w3.org/Graphics/SVG/1.1/DTD/svg11.dtd">
<svg version="1.1" id="Ebene_1" xmlns="http://www.w3.org/2000/svg" xmlns:xlink="http://www.w3.org/1999/xlink" x="0px" y="0px"
	 width="78px" height="78px" viewBox="-1 -1 78 78" enable-background="new -1 -1 78 78" xml:space="preserve">
<desc>Created with Lunacy</desc>
<g>
	<path fill-rule="evenodd" clip-rule="evenodd" fill="#3A9274" stroke="#3A9274" stroke-width="0.15" stroke-miterlimit="10" d="
		M18.221,24.96c0,2.824,0.018,5.512-0.006,8.202c-0.016,1.782,0.347,3.532,1.591,4.762c1.778,1.761,3.661,3.512,5.783,4.8
		c2.282,1.385,4.75,0.869,6.906-0.711c1.031-0.758,2.024-1.567,3.004-2.389c1.975-1.657,2.947-3.788,2.944-6.369
		c-0.007-2.723-0.002-5.444-0.002-8.142c2.98-0.844,5.595,1.296,4.921,4.391c-0.406,1.863-0.93,3.472-2.611,4.552
		c-0.307,0.196-0.502,0.699-0.582,1.093c-0.516,2.552-1.783,4.648-3.836,6.219c-0.782,0.595-1.084,1.216-1.052,2.194
		c0.073,2.32,0.029,2.302,2.21,3.132c2.45,0.932,4.885,1.896,7.325,2.854c0.305,0.12,0.598,0.28,0.984,0.462
		c-0.238,0.566-0.457,1.082-0.699,1.66c-0.615-0.217-1.168-0.41-1.949-0.682c0.311,1.482,0.582,2.801,0.859,4.117
		c0.18,0.855,0.307,1.729,0.57,2.558c0.217,0.688,0.074,1.057-0.596,1.319c-0.59,0.232-1.119,0.638-1.719,0.838
		c-0.938,0.313-1.236,0.852-0.809,1.74c1.002,2.084,0.322,3.523-1.422,4.951c-2.523,2.066-4.811,4.42-7.206,6.639
		c-0.216,0.202-0.492,0.338-0.652,0.654c5.217,0.007,10.257-0.795,15.329-1.938c0.164,0.627,0.307,1.163,0.492,1.87
		c-2.529,0.472-4.986,1.011-7.465,1.377c-6.897,1.023-13.826,1.138-20.76,0.457c-6.52-0.639-12.877-2.019-19.035-4.291
		c-0.732-0.271-0.869-0.577-0.637-1.327c1.119-3.621,1.9-7.357,3.781-10.716c2.859-5.105,6.883-8.912,12.309-11.193
		c1.3-0.548,2.556-1.199,3.864-1.729c0.613-0.249,0.835-0.609,0.746-1.226c-0.004-0.033-0.003-0.066,0-0.102
		c0.203-2.007-0.094-3.7-1.834-5.162c-1.03-0.865-1.648-2.365-2.129-3.697c-0.368-1.018-0.856-1.75-1.735-2.319
		c-2.183-1.417-2.51-3.646-2.349-5.95c0.113-1.635,1.377-2.724,3.013-2.886C16.532,24.898,17.309,24.96,18.221,24.96z
		 M12.576,52.445c-0.072-0.068-0.145-0.134-0.217-0.2c-0.88,0.762-1.8,1.484-2.635,2.294c-3.755,3.635-5.756,8.21-7.008,13.187
		c-0.507,2.016-0.55,2.059,1.394,2.692c1.901,0.62,3.838,1.129,5.948,1.742c0-1.365,0-2.487,0-3.592c0.695,0,1.251,0,1.919,0
		c0,1.356,0,2.652,0,4.085c3.973,0.49,7.85,0.97,11.727,1.447c0.069-0.146,0.14-0.293,0.21-0.438
		c-0.262-0.192-0.546-0.363-0.784-0.583c-2.369-2.201-4.629-4.535-7.13-6.572c-1.756-1.434-2.404-2.875-1.411-4.959
		c0.385-0.809,0.196-1.377-0.733-1.689c-0.631-0.213-1.193-0.625-1.813-0.881c-0.595-0.251-0.777-0.545-0.604-1.229
		C11.88,55.994,12.206,54.214,12.576,52.445z M14.498,52.591c-0.354,1.637-0.687,2.996-0.913,4.375
		c-0.044,0.272,0.255,0.731,0.524,0.895c0.744,0.451,1.551,0.801,2.342,1.172c0.461,0.218,0.636,0.479,0.467,1.029
		c-0.303,0.993-0.561,2.011-0.721,3.036c-0.06,0.381,0.078,0.949,0.344,1.205c3.293,3.131,6.623,6.224,9.954,9.318
		c0.71,0.659,2.339,0.652,3.055-0.011c3.357-3.114,6.711-6.232,10.038-9.38c0.227-0.218,0.35-0.708,0.293-1.031
		c-0.18-1.026-0.42-2.045-0.734-3.038c-0.195-0.625-0.021-0.93,0.539-1.176c0.768-0.339,1.521-0.712,2.258-1.114
		c0.234-0.129,0.584-0.434,0.555-0.602c-0.273-1.556-0.621-3.096-1.008-4.938c-4.542,7.138-8.896,13.98-13.329,20.947
		C23.59,66.357,19.126,59.599,14.498,52.591z M15.396,50.501c2.637,3.994,5.186,7.855,7.822,11.848
		c0.767-2.11,1.478-4.063,2.185-6.015c0.033-0.091,0.063-0.212,0.028-0.286c-0.441-0.925-0.895-1.842-1.387-2.849
		c-0.766,0.605-1.492,1.182-2.277,1.803c-0.411-0.516-0.777-0.974-1.171-1.468c1.635-1.317,3.188-2.566,4.72-3.801
		c-1.339-0.579-2.561-1.116-3.79-1.638c-0.174-0.072-0.417-0.161-0.564-0.095C19.126,48.806,17.304,49.638,15.396,50.501z
		 M40.723,49.998c-1.713-0.674-3.3-1.31-4.897-1.92c-0.199-0.075-0.478-0.081-0.672-0.005c-1.357,0.55-2.701,1.129-4.126,1.73
		c1.493,1.208,2.994,2.42,4.558,3.686c-0.434,0.514-0.811,0.962-1.199,1.422c-0.688-0.529-1.284-0.989-1.901-1.465
		c-0.51,1.019-0.962,1.921-1.493,2.977c0.598,1.694,1.266,3.582,2.015,5.699C35.633,57.994,38.131,54.07,40.723,49.998z
		 M28.131,69.784c0.95-1.488,1.706-2.846,2.631-4.073c0.786-1.043,0.946-1.971,0.414-3.204c-0.817-1.896-1.432-3.883-2.096-5.734
		c-0.667-0.047-1.187-0.085-1.779-0.127c-0.865,2.414-1.744,4.842-2.594,7.282c-0.077,0.217-0.055,0.554,0.067,0.744
		C25.839,66.334,26.937,67.975,28.131,69.784z M22.672,43.265c0,1.074-0.025,2.004,0.019,2.934c0.01,0.206,0.219,0.494,0.413,0.588
		c3.197,1.54,6.456,1.613,9.739,0.301c0.237-0.096,0.498-0.456,0.518-0.711c0.066-0.82,0.024-1.646,0.024-2.513
		C28.667,45.809,26.69,45.706,22.672,43.265z M28.359,54.771c1.152-0.04,2.785-1.583,2.316-2.464
		c-0.501-0.939-1.674-1.523-2.554-2.264c-0.788,0.682-2.005,1.232-2.261,2.075C25.498,53.312,27.166,54.812,28.359,54.771z
		 M16.303,26.903c-0.896-0.146-1.384,0.264-1.672,0.931c-0.352,0.81,0.337,3.455,1.026,4.03c0.156,0.129,0.371,0.186,0.646,0.319
		C16.303,30.359,16.303,28.663,16.303,26.903z M40.424,31.82c1.5-1.494,1.482-4.266,0-4.861
		C40.424,28.544,40.424,30.102,40.424,31.82z"/>
	<path fill-rule="evenodd" clip-rule="evenodd" fill="#3A9274" stroke="#3A9274" stroke-width="0.15" stroke-miterlimit="10" d="
		M54.311,31.182c-0.578-0.163-1.115-0.314-1.646-0.464c0.615-2.733,4.051-4.115,6.594-2.733c2.326,1.263,3.395,3.685,2.82,6.33
		c-0.115,0.519-0.189,1.059-0.189,1.588c-0.012,9.67,0.004,19.337-0.014,29.006c-0.01,4.164-3.293,7.466-7.324,7.437
		c-3.248-0.026-6.588-2.937-6.805-6.19c-0.193-2.886-0.119-5.791-0.125-8.686c-0.012-8.22-0.074-16.442,0.039-24.661
		c0.035-2.604,0.588-5.183,2.49-7.234c1.916-2.067,4.285-3.293,7.049-3.55c2.439-0.23,4.904-0.2,7.359-0.221
		c3.672-0.033,7.342-0.009,11.1-0.009c0,15.545,0,31.053,0,46.637c-3.725,0-7.475,0-11.27,0c0-0.559,0-1.084,0-1.736
		c3.111,0,6.221,0,9.383,0c0-14.396,0-28.663,0-43.005c-0.307-0.021-0.598-0.057-0.889-0.058c-4.447-0.004-8.895-0.047-13.34,0.01
		c-2.832,0.037-5.477,0.74-7.574,2.802c-3.443,3.384-2.68,8.491,1.533,10.395c2.145,0.969,4.969,0.23,6.145-1.806
		c1.213-2.098,0.992-4.442-1.635-5.536C56.455,28.848,55.354,29.365,54.311,31.182z M59.887,37.625
		c-3.834,2.24-7.24,1.875-10.354-1.461c0,1.429,0,2.605,0,3.782c0,8.39,0.006,16.779-0.006,25.167
		c-0.002,1.812,0.625,3.314,2.115,4.354c1.719,1.197,3.607,1.304,5.471,0.42c1.922-0.91,2.803-2.554,2.805-4.656
		c0.008-8.995,0.004-17.991,0.002-26.987C59.92,38.078,59.902,37.912,59.887,37.625z"/>
	<path fill-rule="evenodd" clip-rule="evenodd" fill="#3A9274" stroke="#3A9274" stroke-width="0.15" stroke-miterlimit="10" d="
		M27.883,23.891c-5.849-0.167-10.689-0.314-15.475-1.224c-0.884-0.167-1.122-0.521-1.097-1.383c0.072-2.511,1.523-4.349,3.964-4.515
		c2.134-0.146,4.292-0.079,6.432,0.027c5.596,0.281,11.174,0.104,16.758-0.295c1.466-0.104,3.023,0.218,4.449,0.643
		c1.66,0.495,2.93,3.182,2.461,4.862c-0.074,0.266-0.566,0.544-0.895,0.59c-2.631,0.367-5.26,0.791-7.904,0.978
		C33.354,23.801,30.117,23.816,27.883,23.891z M13.203,20.975c10.146,1.35,20.193,1.39,30.314-0.021
		c-0.148-1.138-0.541-1.958-1.52-2.1c-1.615-0.235-3.256-0.407-4.887-0.403c-5.344,0.013-10.687,0.131-16.03,0.181
		c-1.841,0.019-3.687-0.128-5.522-0.035C14.069,18.672,13.485,19.337,13.203,20.975z"/>
	<path fill-rule="evenodd" clip-rule="evenodd" fill="#3A9274" stroke="#3A9274" stroke-width="0.15" stroke-miterlimit="10" d="
		M17.694,9.68c0.475,0.069,0.765,0.114,1.099,0.162c0,0.589,0,1.149,0,1.798c-0.497,0.026-0.987,0.05-1.673,0.086
		c-0.056,0.971-0.113,1.95-0.174,3.009c-0.592,0-1.171,0-1.855,0c0-1.51-0.107-2.988,0.051-4.437
		c0.067-0.612,0.741-1.139,1.054-1.746c1.536-2.975,3.818-5.075,7.011-6.171c0.298-0.102,0.619-0.459,0.718-0.766
		c0.58-1.802,1.653-2.623,3.594-2.615c0.737,0.003,1.492-0.023,2.207,0.122c1.093,0.222,1.946,0.908,2.206,1.996
		c0.215,0.902,0.789,1.072,1.518,1.284c5.155,1.503,8.819,7.057,8.112,12.338c-0.572,0-1.154,0-1.805,0
		c-0.049-1.007-0.092-1.967-0.141-3.024c-0.818,0-1.542,0-2.326,0c0-0.688,0-1.276,0-1.889c0.554-0.045,1.077-0.088,1.726-0.14
		c-1.352-3.092-3.6-4.884-6.851-5.704c0,2.597,0,5.102,0,7.653c-0.667,0-1.223,0-1.91,0c0-0.494,0-0.955,0-1.414
		c0-2.594,0.005-5.188-0.003-7.781c-0.004-1.29-0.198-1.491-1.442-1.486c-3.239,0.013-2.949-0.37-2.952,2.886
		c-0.002,2.256,0.001,4.513-0.002,6.77c-0.001,0.326-0.028,0.654-0.044,1.025c-0.644,0-1.204,0-1.875,0c0-2.465,0-4.906,0-7.482
		C20.967,5.078,18.972,6.843,17.694,9.68z"/>
	<path fill-rule="evenodd" clip-rule="evenodd" fill="#3A9274" stroke="#3A9274" stroke-width="0.15" stroke-miterlimit="10" d="
		M68.283,60.262c-0.6,0-1.128,0-1.723,0c0-2.691,0-5.337,0-8.059c0.533,0,1.088,0,1.723,0
		C68.283,54.824,68.283,57.493,68.283,60.262z"/>
	<path fill-rule="evenodd" clip-rule="evenodd" fill="#3A9274" stroke="#3A9274" stroke-width="0.15" stroke-miterlimit="10" d="
		M66.543,33.039c0-0.762,0-1.491,0-2.308c0.551,0,1.104,0,1.738,0c0,0.717,0,1.472,0,2.308
		C67.771,33.039,67.222,33.039,66.543,33.039z"/>
	<path fill-rule="evenodd" clip-rule="evenodd" fill="#3A9274" stroke="#3A9274" stroke-width="0.15" stroke-miterlimit="10" d="
		M68.289,38.137c-0.579,0-1.108,0-1.717,0c0-0.771,0-1.523,0-2.358c0.535,0,1.089,0,1.717,0
		C68.289,36.513,68.289,37.27,68.289,38.137z"/>
	<path fill-rule="evenodd" clip-rule="evenodd" fill="#3A9274" stroke="#3A9274" stroke-width="0.15" stroke-miterlimit="10" d="
		M68.325,40.823c0,0.82,0,1.549,0,2.343c-0.586,0-1.139,0-1.763,0c0-0.764,0-1.517,0-2.343
		C67.126,40.823,67.68,40.823,68.325,40.823z"/>
	<path fill-rule="evenodd" clip-rule="evenodd" fill="#3A9274" stroke="#3A9274" stroke-width="0.15" stroke-miterlimit="10" d="
		M68.321,45.89c0,0.785,0,1.516,0,2.32c-0.562,0-1.115,0-1.748,0c0-0.731,0-1.484,0-2.32C67.106,45.89,67.661,45.89,68.321,45.89z"
		/>
</g>
</svg>
