<?xml version="1.0" encoding="utf-8"?>
<!-- Generator: Adobe Illustrator 16.0.0, SVG Export Plug-In . SVG Version: 6.00 Build 0)  -->
<!DOCTYPE svg PUBLIC "-//W3C//DTD SVG 1.1//EN" "http://www.w3.org/Graphics/SVG/1.1/DTD/svg11.dtd">
<svg version="1.1" id="Ebene_1" xmlns="http://www.w3.org/2000/svg" xmlns:xlink="http://www.w3.org/1999/xlink" x="0px" y="0px"
	 width="67px" height="68px" viewBox="0 0 67 68" enable-background="new 0 0 67 68" xml:space="preserve">
<desc>Created with Lunacy</desc>
<g transform="scale(0.1391921 0.1384929)">
	<g>
		<path fill="#3A9274" d="M82.448,0c4.609,2.239,5.799,6.032,5.774,10.919c-0.102,51.172-0.049,102.319-0.049,153.462
			c0,1.167,0,2.313,0,3.614c5.472,0,10.587,0,16.06,0c0-2.493-0.025-4.841,0-7.178c0.049-5.504,3.066-8.61,8.587-8.737
			c5.013-0.074,10.005,0,15.421,0c0-2.464,0-4.707,0-6.946c0-2.902-0.025-5.832,0-8.761c0.102-4.989,3.192-8.145,8.209-8.243
			c4.182-0.106,8.359-0.028,12.566-0.028c0.986,0,1.95,0,3.266,0c0-5.116-0.025-9.904,0-14.688c0.025-6.392,2.912-9.294,9.345-9.343
			c4.788-0.028,9.601,0,14.667,0c0-5.25,0-10.133,0.025-15.02c0-5.881,2.992-8.913,8.868-8.941c4.964-0.021,9.927,0,15.147,0
			c0-5.288,0.098-10.207-0.028-15.093c-0.126-4.298,1.771-7.051,5.648-8.705c36.855-15.76,73.681-31.544,110.536-47.272
			c6.286-2.676,11.759,0.913,11.787,7.71c0.07,16.571,0.147,33.148-3.326,49.462c-1.901,8.962-5.086,17.417-9.422,25.459
			c-9.696,18.002-21.658,34.291-36.167,48.7c-8.44,8.402-16.845,16.828-25.278,25.276c-0.631,0.642-1.242,1.304-2.154,2.271
			c36.322,0,72.264,0,108.48,0c0-1.121,0-2.165,0-3.233c0-35.592,0.056-71.18-0.021-106.771c-0.028-3.638,1.137-6.413,3.726-8.931
			c12.537-12.428,24.998-24.923,37.486-37.425c4.813-4.813,8.896-4.837,13.653-0.102c12.565,12.555,25.082,25.127,37.69,37.601
			c2.505,2.496,3.648,5.165,3.62,8.705c-0.049,43.331-0.028,86.657-0.077,129.988c0,2.214,0.561,3.815,2.105,5.521
			c20.438,22.684,27.25,49.031,18.34,78.207c-9.015,29.383-29.481,47.604-59.397,54.782c-5.851,1.403-12.061,1.756-18.136,1.862
			c-18.115,0.233-36.223,0.233-54.311-0.05c-4.406-0.056-7.549,1.142-9.85,5.063c0.281,0.381,0.66,0.938,1.094,1.502
			c7.893,9.851,7.297,23.883-1.424,32.309c-9.114,8.828-23.735,9.209-33.235,0.691c-4.203-3.772-8.026-7.947-12.074-11.896
			c-2.336-2.271-5.115-3.025-8.286-1.96c-3.017,1.072-4.785,3.258-5.318,6.367c-0.484,2.792,0.582,5.162,2.554,7.15
			c3.627,3.589,7.219,7.185,10.819,10.817c9.703,9.809,9.829,24.8,0.33,34.27c-9.528,9.52-24.444,9.364-34.301-0.324
			c-3.494-3.441-6.918-6.981-10.433-10.422c-3.799-3.737-8.816-3.963-12.106-0.557c-3.294,3.364-3.013,8.074,0.786,11.889
			c3.519,3.54,7.114,7.03,10.612,10.612c9.401,9.604,9.422,24.496,0.126,33.889c-9.373,9.463-24.391,9.463-34.094,0
			c-3.519-3.441-6.939-6.953-10.436-10.415c-3.876-3.822-8.689-4.076-12.082-0.684c-3.343,3.385-3.013,8.222,0.835,12.086
			c1.649,1.706,3.396,3.286,4.992,5.07c2.557,2.877,3.038,7.312,0.48,9.978c-5.75,6.064-11.854,11.79-17.631,17.494
			c-3.645-3.646-7.269-7.284-11.068-11.056c3.596-3.434,7.318-7.023,10.387-9.978c-2.178-4.788-4.736-8.68-5.778-12.925
			c-2.606-10.443,2.178-20.653,11.348-25.766c9.268-5.197,20.897-3.871,28.622,3.385c3.571,3.356,6.967,6.903,10.461,10.386
			c4.182,4.153,8.994,4.633,12.464,1.22c3.571-3.511,3.192-8.222-1.042-12.467c-3.469-3.469-6.963-6.931-10.408-10.443
			c-9.524-9.724-9.524-24.673-0.025-34.058c9.524-9.421,24.37-9.322,34.094,0.254c3.62,3.582,7.198,7.207,10.812,10.789
			c3.732,3.674,8.594,3.899,11.906,0.614c3.375-3.385,3.192-8.074-0.533-11.86c-3.515-3.596-7.093-7.08-10.608-10.647
			c-9.654-9.802-9.752-24.898-0.232-34.284c9.528-9.449,24.5-9.244,34.294,0.458c3.578,3.505,7.072,7.073,10.643,10.584
			c3.747,3.723,8.539,3.899,11.878,0.508c3.318-3.356,3.094-8.067-0.61-11.86c-1.158-1.17-2.245-2.397-3.494-3.462
			c-3.774-3.307-5.241-7.129-2.406-12.192c-1.417,0-2.456,0-3.494,0c-77.533,0-155.091,0.028-232.627,0
			c-38.472-0.028-70.542-25.561-79.052-63.011c-0.884-3.864-1.34-7.869-1.975-11.783c0-3.646,0-7.284,0-10.923
			c0.154-0.61,0.407-1.223,0.456-1.837c1.722-18.302,8.991-34.111,21.605-47.452c1.522-1.601,2.049-3.156,2.049-5.292
			c-0.049-59.14-0.025-118.276-0.095-177.44C23.987,5.574,25.457,2.01,30.042,0C47.519,0,64.996,0,82.448,0z M240.58,312.185
			c52.784,0,105.572,0.021,158.36-0.028c3.901,0,7.823-0.275,11.681-0.839c36.448-5.472,60.934-42.104,52.199-77.925
			c-7.17-29.252-32.645-49.306-62.842-49.306c-106.13-0.028-212.236,0-318.366,0.046c-4.357,0-8.742,0.356-13.046,1.072
			c-34.294,5.729-58.183,40.499-51.367,74.638c6.206,31.061,32.168,52.342,63.905,52.342
			C134.271,312.206,187.413,312.185,240.58,312.185z M138.2,168.02c1.186,0.074,1.515,0.102,1.845,0.102
			c29.029,0,58.057,0.025,87.061-0.049c1.165,0,2.582-0.769,3.469-1.636c6.637-6.462,13.221-13.031,19.704-19.648
			c9.879-10.083,20.213-19.758,29.334-30.472c15.807-18.534,28.667-38.797,31.361-63.875c0.835-7.89,1.235-15.834,1.894-24.186
			c-1.165,0.331-1.515,0.384-1.845,0.536c-31.06,13.292-62.14,26.58-93.14,39.946c-0.758,0.328-1.491,1.703-1.519,2.62
			c-0.151,5.447-0.024,10.923-0.073,16.37c-0.053,4.911-3.322,8.173-8.233,8.324c-1.8,0.053-3.648,0-5.448,0
			c-3.42,0-6.837,0-10.131,0c-0.126,0.638-0.179,0.814-0.179,0.969c-0.025,4.837,0,9.646-0.049,14.484
			c-0.024,5.246-3.241,8.476-8.51,8.581c-2.178,0.025-4.357,0-6.535,0c-2.961,0-5.925,0-8.791,0
			c-0.098,0.635-0.147,0.811-0.147,0.991c-0.028,4.453-0.028,8.909-0.028,13.391c0,6.667-2.94,9.622-9.65,9.622
			c-4.687,0.025-9.394,0.025-14.362,0.025c0,4.559-0.151,8.811,0.053,13.063C144.455,161.758,143.62,165.675,138.2,168.02z
			 M376.419,168.122c7.984,0,15.526,0.078,23.075,0c13.73-0.127,26.618,3.078,38.756,9.519c0.659,0.356,1.375,0.61,2.224,0.991
			c0.056-0.839,0.105-1.297,0.105-1.731c0-38.486,0-76.98-0.077-115.448c0-1.195-0.652-2.673-1.487-3.512
			c-6.104-6.261-12.341-12.396-18.494-18.584c-1.116-1.146-2.105-2.419-3.136-3.642c-0.281,0.176-0.582,0.332-0.863,0.508
			c0,9.195,0,18.379,0,27.599c-5.529,0-10.671,0-16.214,0c0-9.368,0-18.531,0-28.512c-7.725,7.788-14.79,14.995-21.96,22.099
			c-1.417,1.4-1.979,2.799-1.95,4.781c0.049,34.192,0.021,68.405,0.021,102.597C376.419,165.777,376.419,166.768,376.419,168.122z
			 M40.324,60.36c0,39.583,0,78.816,0,118.403c10.005-5.705,20.494-9.065,31.638-10.284c0-36.103,0-71.994,0-108.143
			C61.421,65.271,51.062,65.271,40.324,60.36z M40.401,16.116c-0.102,0.561-0.281,0.991-0.281,1.396
			c0.028,5.757-0.253,11.508,0.203,17.188c0.61,7.51,6.788,13.034,14.186,13.338c9.117,0.381,16.186-4.072,17.2-12.019
			c0.835-6.515,0.179-13.182,0.179-19.902C61.347,16.116,50.911,16.116,40.401,16.116z"/>
		<path fill="#3A9274" d="M408.363,272.112c-13.344-0.077-23.988-10.866-23.889-24.235c0.105-13.108,11.022-23.876,24.142-23.774
			c13.302,0.127,24.016,10.997,23.917,24.285C432.427,261.549,421.609,272.161,408.363,272.112z M408.412,240.215
			c-4.406,0.025-7.977,3.614-7.949,7.993c0.049,4.358,3.69,7.947,8.082,7.926c4.378-0.028,7.998-3.695,7.977-8.053
			C416.466,243.674,412.867,240.187,408.412,240.215z"/>
		<path fill="#3A9274" d="M88.222,272.083c-13.169,0.127-23.959-10.556-24.061-23.823c-0.126-13.137,10.563-23.978,23.809-24.158
			c13.148-0.18,24.012,10.485,24.166,23.774C112.286,261.274,101.749,271.957,88.222,272.083z M80.217,248.155
			c0,4.432,3.547,7.979,7.981,7.979c4.41,0,7.953-3.568,7.928-8c0-4.46-3.494-7.919-7.977-7.919
			C83.661,240.215,80.217,243.674,80.217,248.155z"/>
		<path fill="#3A9274" d="M280.448,295.917c0-5.246,0-10.309,0-15.555c26.597,0,53.09,0,79.785,0c0,5.07,0,10.21,0,15.555
			C333.769,295.917,307.27,295.917,280.448,295.917z"/>
		<path fill="#3A9274" d="M48.077,247.979c-5.423,0-10.485,0-15.884,0c-0.077-11.303,3.14-21.408,9.373-30.952
			c4.459,3,8.71,5.877,13.222,8.881C50.532,232.628,48.228,239.859,48.077,247.979z"/>
		<path fill="#3A9274" d="M62.438,216.237c-2.81-3.487-6.079-7.489-9.447-11.638c7.647-6.233,16.207-10.002,26.215-11.786
			c0.835,5.172,1.67,10.313,2.406,14.892C75.232,210.557,69.072,213.282,62.438,216.237z"/>
		<path fill="#3A9274" d="M376.601,280.235c5.29,0,10.384,0,15.681,0c0,5.246,0,10.415,0,15.753c-5.22,0-10.363,0-15.681,0
			C376.601,290.748,376.601,285.636,376.601,280.235z"/>
	</g>
</g>
</svg>
