<?xml version="1.0" encoding="utf-8"?>
<!-- Generator: Adobe Illustrator 16.0.0, SVG Export Plug-In . SVG Version: 6.00 Build 0)  -->
<!DOCTYPE svg PUBLIC "-//W3C//DTD SVG 1.1//EN" "http://www.w3.org/Graphics/SVG/1.1/DTD/svg11.dtd">
<svg version="1.1" id="Ebene_1" xmlns="http://www.w3.org/2000/svg" xmlns:xlink="http://www.w3.org/1999/xlink" x="0px" y="0px"
	 width="60px" height="78px" viewBox="0 -1.5 60 78" enable-background="new 0 -1.5 60 78" xml:space="preserve">
<desc>Created with Lunacy</desc>
<g id="portapapeles">
	<path id="Shape" fill="#3A9274" stroke="#FFFFFF" stroke-width="0.5" d="M7.499,75h44.996c4.14-0.004,7.495-3.359,7.499-7.499
		V15.005c-0.004-4.14-3.359-7.495-7.499-7.5h-8.474c-0.705-0.792-1.715-1.247-2.775-1.25h-3.854C36.786,2.645,33.659,0,29.998,0
		c-3.663,0-6.789,2.645-7.396,6.256h-3.853c-1.061,0.003-2.07,0.458-2.775,1.25H7.499C3.359,7.51,0.004,10.865,0,15.005v52.496
		C0.004,71.641,3.359,74.996,7.499,75L7.499,75z M52.495,56.252h-8.749c-1.381,0-2.5,1.119-2.5,2.5v8.749H8.75
		c-0.691,0-1.25-0.56-1.25-1.251V16.255c0-0.69,0.56-1.25,1.25-1.25h6.249c0,2.071,1.679,3.75,3.75,3.75h22.498
		c2.07,0,3.75-1.679,3.75-3.75h6.25c0.689,0,1.249,0.56,1.249,1.25V56.252z M50.728,58.752l-6.981,6.981v-6.981H50.728z
		 M18.749,8.756h4.999c0.691,0,1.25-0.56,1.25-1.25c0-2.761,2.238-5,5-5s4.999,2.238,4.999,5c0,0.691,0.561,1.25,1.25,1.25h5
		c0.69,0,1.25,0.56,1.25,1.25v5c0,0.69-0.56,1.25-1.25,1.25H18.749c-0.691,0-1.25-0.56-1.25-1.25v-5
		C17.498,9.316,18.058,8.756,18.749,8.756L18.749,8.756z M2.5,15.005c0-2.761,2.238-5,5-5h7.5v2.5H8.75
		c-2.071,0-3.75,1.679-3.75,3.75V66.25C5,68.322,6.678,70,8.75,70h32.711c0.517-0.002,1.027-0.109,1.5-0.319
		c0.023-0.009,0.043-0.024,0.064-0.034c0.403-0.184,0.77-0.438,1.084-0.75l9.785-9.784c0.308-0.313,0.559-0.677,0.74-1.077
		c0.013-0.026,0.029-0.047,0.039-0.074c0.209-0.472,0.317-0.982,0.318-1.5V16.255c0-2.071-1.679-3.75-3.75-3.75h-6.246v-2.5h7.499
		c2.761,0,4.999,2.238,4.999,5v52.496c0,2.761-2.238,4.999-4.999,4.999H7.499c-2.761,0-5-2.238-5-4.999V15.005z"/>
	<path id="Shape_1_" fill="#3A9274" stroke="#FFFFFF" stroke-width="0.5" d="M23.748,13.756h12.499c0.691,0,1.25-0.56,1.25-1.25
		c0-0.69-0.559-1.25-1.25-1.25H23.748c-0.69,0-1.25,0.56-1.25,1.25C22.498,13.196,23.058,13.756,23.748,13.756L23.748,13.756z"/>
	<path id="Shape_2_" fill="#3A9274" stroke="#FFFFFF" stroke-width="0.5" d="M21.249,32.504c-0.69,0-1.25,0.56-1.25,1.25v1.25h-7.5
		v-7.499h3.75c0.69,0,1.25-0.56,1.25-1.25c0-0.69-0.56-1.25-1.25-1.25H12.5c-1.38,0-2.5,1.119-2.5,2.5v7.499
		c0,1.381,1.119,2.5,2.5,2.5h7.5c1.38,0,2.5-1.119,2.5-2.5v-1.25C22.499,33.063,21.94,32.504,21.249,32.504L21.249,32.504z"/>
	<path id="Shape_3_" fill="#3A9274" stroke="#FFFFFF" stroke-width="0.5" d="M19.999,42.503h-7.5c-1.38,0-2.5,1.119-2.5,2.499v7.5
		c0,1.381,1.119,2.5,2.5,2.5h7.5c1.38,0,2.5-1.119,2.5-2.5v-7.5C22.499,43.622,21.379,42.503,19.999,42.503L19.999,42.503z
		 M12.5,52.502v-7.5h7.5v7.5H12.5z"/>
	<path id="Shape_4_" fill="#3A9274" stroke="#FFFFFF" stroke-width="0.5" d="M26.248,30.004h6.25c0.69,0,1.25-0.56,1.25-1.25
		c0-0.69-0.56-1.25-1.25-1.25h-6.25c-0.69,0-1.25,0.56-1.25,1.25C24.998,29.445,25.558,30.004,26.248,30.004L26.248,30.004z"/>
	<path id="Shape_5_" fill="#3A9274" stroke="#FFFFFF" stroke-width="0.5" d="M48.745,27.504H37.496c-0.69,0-1.25,0.56-1.25,1.25
		c0,0.691,0.56,1.25,1.25,1.25h11.249c0.69,0,1.25-0.56,1.25-1.25C49.995,28.064,49.436,27.504,48.745,27.504L48.745,27.504z"/>
	<path id="Shape_6_" fill="#3A9274" stroke="#FFFFFF" stroke-width="0.5" d="M26.248,35.004h12.499c0.691,0,1.25-0.56,1.25-1.25
		c0-0.69-0.559-1.25-1.25-1.25H26.248c-0.69,0-1.25,0.56-1.25,1.25C24.998,34.444,25.558,35.004,26.248,35.004L26.248,35.004z"/>
	<path id="Shape_7_" fill="#3A9274" stroke="#FFFFFF" stroke-width="0.5" d="M48.746,32.504h-5c-0.69,0-1.25,0.56-1.25,1.25
		c0,0.691,0.56,1.25,1.25,1.25h5c0.689,0,1.249-0.56,1.249-1.25C49.995,33.063,49.436,32.504,48.746,32.504L48.746,32.504z"/>
	<path id="Shape_8_" fill="#3A9274" stroke="#FFFFFF" stroke-width="0.5" d="M26.248,47.502h6.25c0.69,0,1.25-0.559,1.25-1.249
		s-0.56-1.251-1.25-1.251h-6.25c-0.69,0-1.25,0.561-1.25,1.251S25.558,47.502,26.248,47.502L26.248,47.502z"/>
	<path id="Shape_9_" fill="#3A9274" stroke="#FFFFFF" stroke-width="0.5" d="M48.745,45.002H37.496c-0.69,0-1.25,0.561-1.25,1.251
		s0.56,1.249,1.25,1.249h11.249c0.69,0,1.25-0.559,1.25-1.249S49.436,45.002,48.745,45.002L48.745,45.002z"/>
	<path id="Shape_10_" fill="#3A9274" stroke="#FFFFFF" stroke-width="0.5" d="M38.746,50.002H26.248c-0.69,0-1.25,0.56-1.25,1.25
		s0.56,1.25,1.25,1.25h12.499c0.691,0,1.25-0.56,1.25-1.25S39.438,50.002,38.746,50.002L38.746,50.002z"/>
	<path id="Shape_11_" fill="#3A9274" stroke="#FFFFFF" stroke-width="0.5" d="M48.746,50.002h-5c-0.69,0-1.25,0.56-1.25,1.25
		s0.56,1.25,1.25,1.25h5c0.689,0,1.249-0.56,1.249-1.25S49.436,50.002,48.746,50.002L48.746,50.002z"/>
	<path id="Shape_12_" fill="#3A9274" stroke="#FFFFFF" stroke-width="0.5" d="M22.731,23.029l-5.393,7.548l-1.456-1.456
		c-0.49-0.474-1.27-0.467-1.752,0.015c-0.482,0.482-0.489,1.262-0.015,1.752l2.5,2.5c0.234,0.235,0.552,0.366,0.883,0.366h0.103
		c0.366-0.03,0.7-0.221,0.913-0.52l6.25-8.749c0.281-0.362,0.341-0.849,0.156-1.268c-0.184-0.419-0.583-0.704-1.04-0.743
		c-0.456-0.039-0.897,0.176-1.149,0.558V23.029z"/>
</g>
</svg>
