<?xml version="1.0" encoding="utf-8"?>
<!-- Generator: Adobe Illustrator 16.0.0, SVG Export Plug-In . SVG Version: 6.00 Build 0)  -->
<!DOCTYPE svg PUBLIC "-//W3C//DTD SVG 1.1//EN" "http://www.w3.org/Graphics/SVG/1.1/DTD/svg11.dtd">
<svg version="1.1" id="Ebene_1" xmlns="http://www.w3.org/2000/svg" xmlns:xlink="http://www.w3.org/1999/xlink" x="0px" y="0px"
	 width="78px" height="78px" viewBox="0 0 78 78" enable-background="new 0 0 78 78" xml:space="preserve">
<desc>Created with Lunacy</desc>
<g>
	<path id="XMLID_235_" fill="#3A9274" stroke="#FFFFFF" stroke-width="0.5" stroke-miterlimit="10" d="M75.68,73.072
		c-1.446,1.152-3.465,1.154-4.913,0.005l-0.021-0.017c-0.454-0.359-0.939-0.652-1.442-0.887v-4.952h7.325
		c0.844,0,1.527-0.685,1.527-1.526s-0.685-1.524-1.527-1.524h-7.325v-2.292c0-1.599,1.299-2.898,2.899-2.898
		c0.803,0,1.55,0.319,2.104,0.903c0.579,0.613,1.546,0.637,2.156,0.059c0.612-0.58,0.641-1.547,0.06-2.157
		c-1.119-1.183-2.694-1.858-4.319-1.858c-3.282,0-5.953,2.672-5.953,5.953v2.292H53.782v-2.293c0-1.599,1.302-2.898,2.898-2.898
		c0.808,0,1.556,0.319,2.106,0.906c0.58,0.61,1.546,0.638,2.158,0.058c0.611-0.58,0.638-1.547,0.059-2.157
		c-1.118-1.185-2.693-1.86-4.323-1.86c-3.281,0-5.95,2.672-5.95,5.953v2.292H22.055c-0.185-3.577-0.11-7.18,0.227-10.733
		c0.078-0.84-0.538-1.584-1.377-1.662c-0.839-0.082-1.584,0.537-1.664,1.375c-0.343,3.647-0.424,7.348-0.244,11.021h-6.39
		c-0.063-12.398,2.97-24.477,8.838-35.301c0.779,1.086,1.966,1.86,3.335,2.091c-1.148,2.756-2.142,5.588-2.958,8.449
		c-0.229,0.812,0.24,1.654,1.051,1.885c0.14,0.04,0.28,0.062,0.418,0.062c0.665,0,1.276-0.439,1.468-1.109
		c0.974-3.417,2.209-6.789,3.677-10.035c0.975-0.628,1.724-1.575,2.102-2.693L41.62,38.605c0.288,0.291,0.679,0.446,1.078,0.446
		c0.11,0,0.219-0.011,0.33-0.034c0.509-0.113,0.927-0.477,1.104-0.967c1.979-5.398,0.63-11.514-3.437-15.577
		c-0.165-0.166-0.337-0.326-0.507-0.484h9.571c0.523,0,1.009-0.267,1.289-0.705c0.282-0.438,0.317-0.991,0.099-1.465
		c-2.42-5.216-7.697-8.586-13.443-8.586c-1.485,0-2.953,0.227-4.357,0.66l5.519-9.563c0.262-0.451,0.275-1.004,0.035-1.467
		c-0.24-0.462-0.702-0.771-1.22-0.817c-4.646-0.415-9.151,1.924-11.482,5.96c-0.025,0.046-0.051,0.092-0.076,0.137
		c-0.025-0.045-0.051-0.091-0.076-0.137c-2.33-4.037-6.835-6.375-11.484-5.96c-0.519,0.046-0.979,0.354-1.216,0.817
		c-0.242,0.462-0.229,1.016,0.031,1.467l5.768,9.991c-1.752-0.71-3.639-1.087-5.563-1.087c-5.745,0-11.023,3.371-13.442,8.585
		c-0.22,0.474-0.181,1.026,0.099,1.466c0.279,0.438,0.765,0.705,1.287,0.705h9.572c-0.171,0.157-0.342,0.317-0.509,0.483
		c-4.064,4.06-5.411,10.173-3.434,15.573c0.177,0.489,0.595,0.854,1.104,0.966c0.11,0.024,0.218,0.035,0.329,0.035
		c0.398,0,0.789-0.156,1.08-0.446l6.972-6.972C11.921,41.783,9.5,52.851,9.556,64.172H1.526C0.683,64.171,0,64.854,0,65.695
		s0.683,1.526,1.526,1.526H11.1h0.001h0.007h9.506h0.002h0.002H50.73v4.615c-0.824,0.254-1.614,0.66-2.327,1.224l-0.025,0.021
		c-1.443,1.146-3.462,1.148-4.907,0l-0.028-0.021c-2.563-2.035-6.147-2.031-8.715,0.012c-1.445,1.152-3.465,1.154-4.913,0.005
		l-0.026-0.021c-2.563-2.033-6.141-2.033-8.703,0l-0.028,0.021c-1.447,1.149-3.468,1.149-4.918-0.009
		c-2.562-2.039-6.146-2.041-8.71-0.008l-0.025,0.021c-1.446,1.146-3.462,1.146-4.908,0c-0.659-0.523-1.622-0.413-2.145,0.248
		c-0.524,0.658-0.414,1.62,0.247,2.145c2.562,2.032,6.14,2.032,8.7,0l0.029-0.021c1.447-1.147,3.468-1.147,4.919,0.01
		c2.563,2.04,6.144,2.044,8.711,0.007l0.024-0.02c1.445-1.148,3.463-1.148,4.91,0l0.027,0.02c2.566,2.035,6.147,2.033,8.717-0.013
		c1.444-1.151,3.465-1.153,4.913-0.004l0.026,0.021C42.856,76.49,44.392,77,45.925,77c1.535,0,3.071-0.51,4.353-1.523l0.025-0.021
		c1.447-1.148,3.468-1.146,4.912,0.004c0.003,0.002,0.005,0.004,0.007,0.006c2.567,2.038,6.15,2.036,8.716-0.006
		c1.445-1.15,3.463-1.15,4.913-0.004l0.02,0.016c2.566,2.036,6.148,2.034,8.712-0.006c0.66-0.525,0.767-1.488,0.241-2.146
		C77.296,72.657,76.338,72.549,75.68,73.072L75.68,73.072z M22.635,17.567c0,0,0.002,0.001,0.003,0.001
		c0.857,0.269,1.479,1.07,1.479,2.014c0,0.771-0.415,1.443-1.035,1.812c-0.032,0.017-0.063,0.036-0.096,0.055
		c-0.292,0.154-0.625,0.243-0.979,0.243c-1.165,0-2.11-0.946-2.11-2.109c0-1.164,0.948-2.108,2.11-2.108
		C22.227,17.473,22.438,17.504,22.635,17.567L22.635,17.567z M31.382,19.765c-0.002,0.015-0.003,0.029-0.003,0.044
		c-0.116,1.056-1.011,1.882-2.098,1.882c-0.355,0-0.687-0.089-0.981-0.243c-0.031-0.019-0.062-0.038-0.094-0.055
		c-0.619-0.369-1.034-1.042-1.034-1.812c0-1.163,0.945-2.109,2.109-2.109c1.162,0,2.108,0.947,2.108,2.109
		C31.39,19.644,31.386,19.704,31.382,19.765L31.382,19.765z M23.536,25.873c0-0.771,0.417-1.443,1.034-1.812
		c0.032-0.018,0.063-0.036,0.094-0.055c0.293-0.154,0.628-0.243,0.981-0.243s0.687,0.089,0.979,0.243
		c0.033,0.019,0.063,0.037,0.096,0.055c0.619,0.369,1.034,1.042,1.034,1.812c0,1.162-0.946,2.109-2.108,2.109
		C24.481,27.981,23.536,27.035,23.536,25.873z M41.874,34.538L31.552,24.216c1.047-0.515,1.894-1.374,2.395-2.429
		c1.722,0.574,3.29,1.541,4.592,2.841C41.158,27.248,42.357,30.945,41.874,34.538z M47.067,18.933H35.03
		c-0.219-0.075-0.438-0.146-0.661-0.209c-0.219-1.296-0.922-2.431-1.917-3.208c1.614-0.811,3.396-1.231,5.251-1.231
		C41.409,14.283,44.87,16.049,47.067,18.933z M28.844,7.53c1.297-2.249,3.5-3.791,5.975-4.298l-6.513,11.282
		c-0.098,0.018-0.193,0.039-0.288,0.062c-0.231-0.784-0.357-1.588-0.375-2.395c0.002-0.108,0.002-0.217,0-0.326
		C27.673,10.356,28.071,8.869,28.844,7.53L28.844,7.53z M23.403,7.53c0.76,1.315,1.154,2.784,1.188,4.261
		c-0.002,0.149-0.002,0.299,0,0.448c-0.022,0.885-0.171,1.767-0.454,2.616L17.425,3.231C19.901,3.739,22.105,5.283,23.403,7.53
		L23.403,7.53z M4.22,18.933c2.199-2.883,5.66-4.649,9.364-4.649c1.834,0,3.626,0.432,5.246,1.237
		c-0.994,0.778-1.693,1.909-1.912,3.203c-0.222,0.064-0.442,0.134-0.661,0.209H4.22z M9.416,34.538
		c-0.484-3.593,0.713-7.29,3.334-9.91c1.3-1.299,2.869-2.267,4.591-2.841c0.501,1.055,1.349,1.914,2.396,2.429L9.416,34.538z
		 M62.033,73.068c-1.447,1.152-3.469,1.152-4.916,0c-0.002-0.002-0.004-0.002-0.006-0.004c-0.997-0.791-2.146-1.273-3.329-1.449
		v-4.394H66.25v4.317C64.76,71.568,63.276,72.082,62.033,73.068L62.033,73.068z"/>
	<path id="XMLID_1505_" fill="#3A9274" stroke="#FFFFFF" stroke-width="0.5" stroke-miterlimit="10" d="M21.714,44.988
		c-0.4,0-0.793,0.163-1.078,0.445c-0.285,0.285-0.446,0.676-0.446,1.08c0,0.401,0.161,0.793,0.446,1.078
		c0.285,0.282,0.678,0.447,1.078,0.447c0.402,0,0.796-0.165,1.081-0.447c0.282-0.285,0.446-0.677,0.446-1.078
		c0-0.404-0.165-0.797-0.446-1.08C22.511,45.151,22.117,44.988,21.714,44.988z"/>
</g>
</svg>
