<?xml version="1.0" encoding="utf-8"?>
<!-- Generator: Adobe Illustrator 16.0.0, SVG Export Plug-In . SVG Version: 6.00 Build 0)  -->
<!DOCTYPE svg PUBLIC "-//W3C//DTD SVG 1.1//EN" "http://www.w3.org/Graphics/SVG/1.1/DTD/svg11.dtd">
<svg version="1.1" id="Ebene_1" xmlns="http://www.w3.org/2000/svg" xmlns:xlink="http://www.w3.org/1999/xlink" x="0px" y="0px"
	 width="70.659px" height="68px" viewBox="0 0 70.659 68" enable-background="new 0 0 70.659 68" xml:space="preserve">
<g>
	<path fill="#3A9274" d="M35.329,65.115c-0.313,0-0.615-0.146-0.814-0.386L0.253,24.021c-0.325-0.388-0.334-0.933-0.043-1.328
		L13.06,5.544c0.208-0.271,0.522-0.429,0.856-0.429h42.826c0.335,0,0.66,0.158,0.858,0.429l12.85,17.149
		c0.304,0.396,0.282,0.94-0.042,1.328L36.146,64.729C35.947,64.969,35.643,65.115,35.329,65.115L35.329,65.115z M2.437,23.287
		l32.892,39.087l32.895-39.087L56.21,7.261H14.449L2.437,23.287z M2.437,23.287"/>
	<path fill="#3A9274" d="M69.593,24.397H1.065C0.482,24.397,0,23.927,0,23.331c0-0.598,0.482-1.066,1.065-1.066h68.527
		c0.596,0,1.066,0.468,1.066,1.066C70.659,23.927,70.188,24.397,69.593,24.397L69.593,24.397z M69.593,24.397"/>
	<path fill="#3A9274" d="M35.329,65.115c-0.104,0-0.208-0.021-0.324-0.053c-0.565-0.178-0.868-0.784-0.691-1.348l12.851-40.708
		c0.178-0.565,0.774-0.879,1.338-0.69c0.565,0.179,0.879,0.772,0.7,1.338L36.354,64.362C36.207,64.823,35.791,65.115,35.329,65.115
		L35.329,65.115z M35.329,65.115"/>
	<path fill="#3A9274" d="M35.329,65.115c-0.45,0-0.877-0.292-1.015-0.753L21.466,23.654c-0.179-0.565,0.134-1.17,0.688-1.35
		c0.578-0.176,1.173,0.137,1.35,0.703l12.851,40.708c0.175,0.563-0.138,1.17-0.701,1.348C35.548,65.095,35.432,65.115,35.329,65.115
		L35.329,65.115z M35.329,65.115"/>
	<path fill="#3A9274" d="M22.479,24.397c-0.386,0-0.763-0.209-0.951-0.585L12.955,6.664c-0.262-0.522-0.043-1.17,0.482-1.433
		c0.532-0.259,1.17-0.051,1.442,0.482l8.563,17.136c0.259,0.536,0.051,1.173-0.482,1.443C22.813,24.367,22.647,24.397,22.479,24.397
		L22.479,24.397z M22.479,24.397"/>
	<path fill="#3A9274" d="M22.479,24.397c-0.219,0-0.439-0.062-0.636-0.209c-0.472-0.353-0.565-1.022-0.209-1.495l12.84-17.149
		c0.357-0.469,1.036-0.565,1.504-0.209c0.471,0.357,0.565,1.027,0.213,1.498l-12.84,17.136
		C23.129,24.251,22.813,24.397,22.479,24.397L22.479,24.397z M22.479,24.397"/>
	<path fill="#3A9274" d="M48.179,24.397c-0.322,0-0.647-0.146-0.855-0.429L34.473,6.832c-0.355-0.471-0.263-1.14,0.22-1.498
		c0.472-0.363,1.141-0.26,1.497,0.209l12.847,17.149c0.356,0.472,0.263,1.142-0.219,1.495
		C48.629,24.335,48.409,24.397,48.179,24.397L48.179,24.397z M48.179,24.397"/>
	<path fill="#3A9274" d="M48.179,24.397c-0.155,0-0.322-0.03-0.48-0.105c-0.522-0.271-0.743-0.907-0.481-1.443l8.574-17.136
		c0.262-0.533,0.898-0.741,1.433-0.482c0.533,0.263,0.742,0.911,0.48,1.433l-8.563,17.148
		C48.953,24.188,48.566,24.397,48.179,24.397L48.179,24.397z M48.179,24.397"/>
</g>
</svg>
