<?xml version="1.0" encoding="utf-8"?>
<!-- Generator: Adobe Illustrator 16.0.0, SVG Export Plug-In . SVG Version: 6.00 Build 0)  -->
<!DOCTYPE svg PUBLIC "-//W3C//DTD SVG 1.1//EN" "http://www.w3.org/Graphics/SVG/1.1/DTD/svg11.dtd">
<svg version="1.1" id="Ebene_1" xmlns="http://www.w3.org/2000/svg" xmlns:xlink="http://www.w3.org/1999/xlink" x="0px" y="0px"
	 width="78px" height="78px" viewBox="-2.5 -1 78 78" enable-background="new -2.5 -1 78 78" xml:space="preserve">
<desc>Created with Lunacy</desc>
<g id="sketch">
	<path id="Fill-1" fill="#3A9274" d="M63.404,64.902h-8.18l8.18-8.178V64.902L63.404,64.902z M64.909,53.092
		c-0.407-0.169-0.875-0.076-1.187,0.235L51.828,65.223c-0.311,0.312-0.404,0.778-0.235,1.187c0.169,0.405,0.565,0.672,1.005,0.672
		h11.896c0.603,0,1.089-0.487,1.089-1.089V54.098C65.581,53.656,65.316,53.26,64.909,53.092L64.909,53.092z"/>
	<path id="Fill-3" fill="#3A9274" d="M28.832,40.502l-2.02-2.027l1.07-3.042l3.981,3.995L28.832,40.502z M38.074,71.99
		l10.691-10.725c0.002-0.002,0,0,0,0c0.414-0.414,0.414-1.088,0-1.502c-0.048-0.048-0.099-0.09-0.152-0.125
		c-0.411-0.283-0.979-0.242-1.344,0.125l-4.291,4.303H8.518c-3.21,0-5.794-2.514-5.896-5.729c0.006-0.201,0.022-0.4,0.047-0.6
		c0-0.002,0-0.002,0-0.004c0.012-0.094,0.026-0.188,0.042-0.279c0.002-0.012,0.004-0.021,0.006-0.032
		c0.015-0.083,0.031-0.165,0.049-0.247c0.005-0.023,0.011-0.047,0.016-0.068c0.016-0.069,0.034-0.139,0.052-0.209
		c0.01-0.037,0.021-0.073,0.032-0.109c0.015-0.055,0.031-0.107,0.048-0.161c0.017-0.053,0.035-0.106,0.054-0.157
		c0.013-0.037,0.025-0.074,0.039-0.111c0.026-0.068,0.053-0.139,0.082-0.207c0.008-0.021,0.016-0.039,0.024-0.059
		c0.036-0.085,0.074-0.169,0.114-0.253c0.001-0.003,0.003-0.006,0.005-0.01c0.828-1.72,2.42-3,4.331-3.397
		c0.005-0.002,0.011-0.002,0.016-0.004c0.087-0.019,0.176-0.033,0.265-0.048c0.015-0.002,0.029-0.006,0.044-0.008
		c0.081-0.013,0.162-0.021,0.243-0.03c0.022-0.003,0.045-0.007,0.068-0.009c0.079-0.008,0.158-0.015,0.237-0.019
		c0.025-0.002,0.05-0.004,0.075-0.006c0.104-0.006,0.208-0.008,0.313-0.008c0.584,0,1.059-0.477,1.059-1.063v-7.699
		c0-0.587-0.474-1.063-1.059-1.063c-0.585,0-1.058,0.476-1.058,1.063v6.704c-1.788,0.228-3.447,1.026-4.755,2.308
		c-0.138,0.135-0.268,0.275-0.395,0.418V13.429c0-3.072,2.229-5.632,5.15-6.137v32.002c0,0.587,0.474,1.062,1.058,1.062
		s1.059-0.475,1.059-1.062V18.768h30.739l-5.851,5.87c-0.414,0.415-0.414,1.087,0,1.501c0.413,0.415,1.083,0.415,1.497,0
		l7.658-7.683c0,0,0,0,0.002,0l6.928-6.95l4.858,4.876l-0.569,0.572l-0.002,0.001L33.8,38.367l-4.86-4.875l4.207-4.221
		c0.413-0.415,0.413-1.087,0-1.501s-1.083-0.415-1.497,0l-4.956,4.971c-0.027,0.026-0.051,0.055-0.075,0.083
		c-0.008,0.01-0.015,0.021-0.022,0.03c-0.015,0.02-0.03,0.04-0.043,0.061c-0.008,0.012-0.015,0.024-0.022,0.037
		c-0.012,0.02-0.023,0.04-0.033,0.061c-0.007,0.013-0.013,0.026-0.019,0.04c-0.009,0.021-0.018,0.042-0.026,0.063
		c-0.003,0.007-0.006,0.015-0.009,0.022l-3.468,9.856c-0.019,0.053-0.032,0.107-0.042,0.162h-3.52c-0.584,0-1.059,0.475-1.059,1.063
		c0,0.586,0.474,1.061,1.059,1.061h29.313c0.584,0,1.059-0.475,1.059-1.061c0-0.588-0.475-1.063-1.059-1.063H27.697l6.456-2.287
		c0.005-0.002,0.01-0.004,0.016-0.006c0.025-0.01,0.05-0.02,0.074-0.031c0.01-0.004,0.02-0.01,0.029-0.014
		c0.025-0.012,0.05-0.026,0.075-0.041c0.008-0.006,0.016-0.01,0.024-0.016c0.026-0.017,0.05-0.033,0.075-0.054
		c0.006-0.004,0.012-0.008,0.018-0.015c0.03-0.022,0.059-0.049,0.086-0.075l21.78-21.85h9.191v22.685L50.38,56.645
		c-0.413,0.414-0.413,1.086,0,1.5c0.026,0.026,0.054,0.051,0.081,0.074c0.193,0.158,0.432,0.237,0.668,0.237
		s0.475-0.079,0.668-0.237c0.027-0.023,0.055-0.048,0.08-0.074l0,0l18.621-18.681v9.368h-1.953c-0.584,0-1.059,0.477-1.059,1.063
		s0.475,1.063,1.059,1.063h1.953v3.199h-1.953c-0.584,0-1.059,0.476-1.059,1.063c0,0.588,0.475,1.063,1.059,1.063h1.953v3.199
		h-1.953c-0.584,0-1.059,0.477-1.059,1.063c0,0.587,0.475,1.063,1.059,1.063h1.953v3.199h-1.953c-0.584,0-1.059,0.477-1.059,1.063
		c0,0.586,0.475,1.063,1.059,1.063h1.953v5.063H38.074V71.99z M57.889,4.45c0.432-0.435,1.137-0.435,1.57,0l3.289,3.3
		c0.434,0.434,0.434,1.141,0,1.576L60.65,11.43l-4.859-4.876L57.889,4.45z M54.293,8.056l4.859,4.875l-1.941,1.949l-4.859-4.876
		L54.293,8.056z M71.961,35.919c-0.395-0.165-0.85-0.074-1.152,0.23l-3.17,3.181V17.706c0-0.586-0.475-1.062-1.059-1.062h-8.133
		l2.951-2.962l0.002-0.001l2.844-2.854c0.609-0.611,0.945-1.425,0.945-2.29c0-0.865-0.336-1.678-0.945-2.289l-3.289-3.3
		C60.346,2.337,59.535,2,58.674,2C57.811,2,57,2.337,56.391,2.948L42.738,16.644H9.883V6.139c0-0.586-0.474-1.062-1.059-1.062
		c-4.589,0-8.324,3.747-8.324,8.352v45.102c0,0.078,0.009,0.154,0.025,0.23c0.146,1.952,0.989,3.77,2.397,5.146
		c1.505,1.473,3.493,2.283,5.596,2.283h32.343l-6.09,6.111c-0.303,0.305-0.394,0.76-0.229,1.157c0.164,0.397,0.55,0.655,0.978,0.655
		h36.039c0.584,0,1.059-0.475,1.059-1.063V36.9C72.615,36.471,72.357,36.084,71.961,35.919L71.961,35.919z"/>
</g>
</svg>
